<svg xmlns="http://www.w3.org/2000/svg" viewBox="0 0 750 500"><g id="freepik--background-complete--inject-49"><path d="M350.24,70.69l.55,2.09s4.8-1.1,7.08-.89a18.07,18.07,0,0,0,4.22,6.35,17.94,17.94,0,0,1-2,4.32l1.79,1.22a13.14,13.14,0,0,1,3.08-3.29,16.44,16.44,0,0,0,2.18,1.21,18.17,18.17,0,0,0,4.65,1.46A28.23,28.23,0,0,1,372,90l2.13.38s1.09-5.14,2.28-7a18.21,18.21,0,0,0,7.37-2.3,17.75,17.75,0,0,1,3,3.34l1.81-1.19a12.88,12.88,0,0,1-1.9-4.19,18.38,18.38,0,0,0,3.86-4.65A28.7,28.7,0,0,1,397.34,76l1-2s-4.3-2.29-5.91-3.94a17.88,17.88,0,0,0,.67-4.84,17.17,17.17,0,0,1,4.39-.91l-.13-2.16a12.81,12.81,0,0,1-4.6-.48A18.13,18.13,0,0,0,390.57,56c.59-.76,3.2-4.08,5-5.31l-1.21-1.8s-4.81,3-6.85,3.22a18.16,18.16,0,0,0-3.8-2.83,17.72,17.72,0,0,1,1.42-4.61l-1.91-.94s-1.43,3-3,4a18,18,0,0,0-5.3-.83c-.09-.2-2-4.66-2.18-7.07l-2.13.16s.21,5.81-.63,7.57a18.19,18.19,0,0,0-11.08,8.69,7.14,7.14,0,0,1,.37-.7s-5-.6-7.22-1.67l-.94,1.92s5,2.67,6.18,4.29a18.18,18.18,0,0,0-.59,7.12A30.06,30.06,0,0,1,350.24,70.69Zm32.17-22.06-.63-.27Q382.1,48.48,382.41,48.63Z" style="fill:#ebebeb"></path><path d="M361,46.79l1.78-1.18a18.21,18.21,0,0,0,3.47,3.68c-1.19.61-3.32,2.07-3.32,2.07C362.82,49.44,361,46.79,361,46.79Z" style="fill:#ebebeb"></path><path d="M361.12,66.28c.95,0,1.56-1.79,2.84-4,.14-.27.34-.54.5-.83s.39-.56.58-.85a21.49,21.49,0,0,1,1.39-1.73,15.4,15.4,0,0,1,3.76-3,14.9,14.9,0,0,1,4.55-1.56,19.76,19.76,0,0,1,2.21-.26c.35,0,.69,0,1,0s.66,0,1,0c2.5.07,4.31.48,4.85-.29a.88.88,0,0,0,.09-.73,2.69,2.69,0,0,0-.53-1,8.56,8.56,0,0,0-3.17-2.42,11.85,11.85,0,0,0-1.24-.51c-.44-.16-.91-.28-1.4-.41a15,15,0,0,0-6.83,0A15.84,15.84,0,0,0,367,50.15a15.68,15.68,0,0,0-3.18,2.37,14.83,14.83,0,0,0-2.28,2.83,15.26,15.26,0,0,0-1.41,2.92c-.15.48-.3.95-.4,1.4s-.19.89-.23,1.32a8.67,8.67,0,0,0,.35,4,3,3,0,0,0,.6,1A.88.88,0,0,0,361.12,66.28Z" style="fill:#fafafa"></path><path d="M394.33,47.72c-.33.21-.06,1.2.6,2.22a6,6,0,0,0,.69.88c.45.47.87.71,1.09.56s.07-1.2-.59-2.22S394.66,47.5,394.33,47.72Z" style="fill:#ebebeb"></path><path d="M397.87,61.11c-.39,0-.67,1-.61,2.21a5.84,5.84,0,0,0,.15,1.11c.15.64.4,1,.65,1s.67-1,.62-2.21S398.26,61.09,397.87,61.11Z" style="fill:#ebebeb"></path><path d="M399.3,73.37c-.35-.17-1.08.56-1.62,1.63a5.74,5.74,0,0,0-.42,1c-.18.62-.17,1.11.07,1.22s1.07-.55,1.61-1.63S399.65,73.55,399.3,73.37Z" style="fill:#ebebeb"></path><path d="M389.82,83.14c-.21-.33-1.21-.07-2.22.59a6.68,6.68,0,0,0-.89.68c-.47.45-.7.88-.56,1.1s1.2.06,2.22-.59S390,83.47,389.82,83.14Z" style="fill:#ebebeb"></path><path d="M375.08,91.12c.07-.38-.83-.88-2-1.1a5.7,5.7,0,0,0-1.11-.11c-.66,0-1.12.15-1.17.4s.83.88,2,1.1S375,91.51,375.08,91.12Z" style="fill:#ebebeb"></path><path d="M362.34,84.88c.22-.32-.4-1.15-1.39-1.84a6.16,6.16,0,0,0-1-.56c-.59-.27-1.07-.33-1.22-.11s.39,1.14,1.38,1.83S362.11,85.2,362.34,84.88Z" style="fill:#ebebeb"></path><path d="M350.46,73.94c.38-.1.45-1.12.15-2.29a5.25,5.25,0,0,0-.36-1.06c-.28-.59-.6-1-.86-.89s-.45,1.12-.15,2.29S350.08,74,350.46,73.94Z" style="fill:#ebebeb"></path><path d="M380.78,70.88c-.59,1.28-.38,2.64.48,3.05s2-.31,2.64-1.59.39-2.64-.47-3S381.38,69.6,380.78,70.88Z" style="fill:#e0e0e0"></path><path d="M382,69.85c-.6,1.27-.38,2.64.48,3s2-.31,2.64-1.59.38-2.64-.48-3S382.58,68.57,382,69.85Z" style="fill:#f5f5f5"></path><path d="M387.64,57.88c-.85-1.13-2.15-1.58-2.91-1s-.68,2,.17,3.08,2.15,1.58,2.91,1S388.49,59,387.64,57.88Z" style="fill:#e0e0e0"></path><path d="M388.9,57c-.85-1.12-2.16-1.57-2.91-1s-.69,2,.16,3.07,2.15,1.58,2.91,1S389.75,58.11,388.9,57Z" style="fill:#f5f5f5"></path><path d="M373,75.69a1.68,1.68,0,1,0,2.24-.81A1.68,1.68,0,0,0,373,75.69Z" style="fill:#e0e0e0"></path><path d="M373.33,74.87a1.68,1.68,0,1,0,2.24-.81A1.69,1.69,0,0,0,373.33,74.87Z" style="fill:#f5f5f5"></path><path d="M369.18,57.41a2.07,2.07,0,1,0,1.35-2.59A2.06,2.06,0,0,0,369.18,57.41Z" style="fill:#e0e0e0"></path><path d="M368.84,56.36a2.07,2.07,0,1,0,1.35-2.6A2.07,2.07,0,0,0,368.84,56.36Z" style="fill:#f5f5f5"></path><path d="M364.49,73.56a1.23,1.23,0,1,0,1.64-.59A1.23,1.23,0,0,0,364.49,73.56Z" style="fill:#e0e0e0"></path><path d="M364.77,73a1.23,1.23,0,1,0,1.64-.59A1.23,1.23,0,0,0,364.77,73Z" style="fill:#f5f5f5"></path><path d="M350.12,56.52c.35.17,1.06-.55,1.6-1.61a6,6,0,0,0,.41-1c.18-.62.17-1.1-.06-1.21s-1.06.54-1.6,1.61S349.78,56.35,350.12,56.52Z" style="fill:#ebebeb"></path><path d="M359.79,46.84c.21.33,1.19.07,2.19-.58a5.36,5.36,0,0,0,.88-.68c.46-.44.7-.86.56-1.07s-1.19-.07-2.19.58S359.58,46.52,359.79,46.84Z" style="fill:#ebebeb"></path><path d="M369.55,39.52c0,.39,1,.65,2.2.58a6.57,6.57,0,0,0,1.09-.17c.63-.16,1-.41,1-.66s-1-.64-2.2-.57S369.53,39.14,369.55,39.52Z" style="fill:#ebebeb"></path><path d="M382.6,42.76c-.18.34.54,1.06,1.6,1.6a6.28,6.28,0,0,0,1,.41c.62.18,1.1.18,1.22-.05s-.55-1.07-1.61-1.61S382.78,42.41,382.6,42.76Z" style="fill:#ebebeb"></path><path d="M362.26,67.7c.07,1.41.89,2.52,1.84,2.47s1.66-1.22,1.59-2.63-.89-2.52-1.84-2.47S362.19,66.29,362.26,67.7Z" style="fill:#e0e0e0"></path><path d="M361.88,66.77c.07,1.4.9,2.51,1.85,2.46s1.66-1.22,1.59-2.63-.9-2.52-1.84-2.47S361.81,65.36,361.88,66.77Z" style="fill:#f5f5f5"></path><path d="M372.74,63.62a2.56,2.56,0,1,0,3.4-1.23A2.55,2.55,0,0,0,372.74,63.62Z" style="fill:#e0e0e0"></path><path d="M373.37,62.28a2.55,2.55,0,1,0,3.4-1.23A2.54,2.54,0,0,0,373.37,62.28Z" style="fill:#f5f5f5"></path><g style="opacity:0.2"><path d="M389.57,71.51a1.56,1.56,0,1,0,.73,2.14A1.59,1.59,0,0,0,389.57,71.51Z" style="fill:#e0e0e0"></path></g><path d="M147,91.14v1.61a24.51,24.51,0,0,1,5.27.73A13.57,13.57,0,0,0,154,98.87a13.15,13.15,0,0,1-2.31,2.72l1.05,1.22a10,10,0,0,1,2.86-1.77,13.57,13.57,0,0,0,4.4,3.25,20.3,20.3,0,0,1-1.1,4.95l1.47.68a22.68,22.68,0,0,1,3-4.59,13.76,13.76,0,0,0,5.75-.23,13.12,13.12,0,0,1,1.52,3l1.53-.52a9.69,9.69,0,0,1-.56-3.38,13.15,13.15,0,0,0,3.68-2.61,21.17,21.17,0,0,1,4.56,2.48l1.06-1.22a24.73,24.73,0,0,1-3.49-4,13.89,13.89,0,0,0,1.42-3.36,13.16,13.16,0,0,1,3.34.19l.32-1.58a9.72,9.72,0,0,1-3.22-1.23,13.9,13.9,0,0,0-.44-4.5,22.26,22.26,0,0,1,4.64-2.86L183,84s-4,1.22-5.56,1a13.15,13.15,0,0,0-2.19-2.78,13.25,13.25,0,0,1,1.92-3L176,78.11A9.42,9.42,0,0,1,173,80.45a13.42,13.42,0,0,0-3.66-1.63,23,23,0,0,1-.21-5.51l-1.57-.3s-1,4.23-1.91,5.33A13.56,13.56,0,0,0,156,82.46a4.39,4.39,0,0,1,.41-.43,23.73,23.73,0,0,1-4.89-2.6l-1.05,1.2s3.1,2.89,3.63,4.29a13.48,13.48,0,0,0-1.8,5A22.62,22.62,0,0,1,147,91.14Zm27.45-9.68-.4-.31Z" style="fill:#ebebeb"></path><path d="M159.32,76l1.51-.5a13.54,13.54,0,0,0,1.79,3.32c-1,.21-2.8.85-2.8.85A8.64,8.64,0,0,0,159.32,76Z" style="fill:#ebebeb"></path><path d="M155.65,90.07c.69.14,1.47-1,2.81-2.3.15-.17.35-.33.52-.5s.39-.33.58-.51a15.94,15.94,0,0,1,1.34-1,10.45,10.45,0,0,1,6.87-1.7,15.69,15.69,0,0,1,1.64.25c.26.06.51.11.75.18s.48.12.7.19c1.79.54,3,1.18,3.55.73a.63.63,0,0,0,.21-.5,2.07,2.07,0,0,0-.19-.86,6.38,6.38,0,0,0-1.81-2.35,8.82,8.82,0,0,0-.8-.61c-.28-.2-.6-.38-.92-.57a11.46,11.46,0,0,0-2.25-.88,10.9,10.9,0,0,0-2.69-.4,10.84,10.84,0,0,0-5.7,1.41,11.11,11.11,0,0,0-2.19,1.59,10.6,10.6,0,0,0-1.58,1.84c-.2.31-.4.62-.56.93s-.31.6-.42.9a6.49,6.49,0,0,0-.51,2.93,2.17,2.17,0,0,0,.23.85A.67.67,0,0,0,155.65,90.07Z" style="fill:#fafafa"></path><path d="M183.17,83.11c-.28.09-.28.86,0,1.72a5.09,5.09,0,0,0,.33.77c.23.42.49.68.68.62s.28-.86,0-1.72S183.45,83,183.17,83.11Z" style="fill:#ebebeb"></path><path d="M183.13,93.44c-.28-.06-.67.6-.87,1.48a4.35,4.35,0,0,0-.1.83c0,.49.08.84.27.88s.67-.6.87-1.48S183.42,93.51,183.13,93.44Z" style="fill:#ebebeb"></path><path d="M181.79,102.56c-.22-.19-.88.19-1.48.86a3.87,3.87,0,0,0-.5.67c-.25.42-.34.77-.2.9s.88-.19,1.48-.86S182,102.76,181.79,102.56Z" style="fill:#ebebeb"></path><path d="M173.07,107.77c-.09-.28-.86-.29-1.71,0a4,4,0,0,0-.77.32c-.43.24-.68.5-.63.68s.86.28,1.72,0S173.16,108.05,173.07,107.77Z" style="fill:#ebebeb"></path><path d="M160.9,110.67c.13-.26-.43-.8-1.24-1.19a4.19,4.19,0,0,0-.78-.29c-.47-.13-.83-.11-.92.06s.43.8,1.24,1.19S160.77,110.93,160.9,110.67Z" style="fill:#ebebeb"></path><path d="M152.93,103.7c.22-.19-.07-.9-.64-1.59a4.73,4.73,0,0,0-.6-.59c-.37-.31-.71-.44-.86-.32s.07.9.64,1.59S152.7,103.89,152.93,103.7Z" style="fill:#ebebeb"></path><path d="M146.48,93.52c.3,0,.54-.72.56-1.62a5.21,5.21,0,0,0-.06-.83c-.09-.48-.25-.8-.44-.81S146,91,146,91.89,146.19,93.52,146.48,93.52Z" style="fill:#ebebeb"></path><path d="M168.93,97.19c-.68.8-.79,1.82-.25,2.28s1.53.17,2.21-.63.79-1.83.25-2.29S169.61,96.38,168.93,97.19Z" style="fill:#e0e0e0"></path><path d="M170,96.67c-.68.81-.79,1.83-.25,2.28s1.54.18,2.21-.63.79-1.82.25-2.28S170.67,95.86,170,96.67Z" style="fill:#f5f5f5"></path><path d="M176.39,89.14c-.4-1-1.25-1.55-1.91-1.29s-.87,1.27-.47,2.25,1.24,1.55,1.9,1.29S176.78,90.12,176.39,89.14Z" style="fill:#e0e0e0"></path><path d="M177.46,88.74c-.39-1-1.24-1.55-1.9-1.29s-.87,1.27-.48,2.25S176.33,91.25,177,91,177.86,89.72,177.46,88.74Z" style="fill:#f5f5f5"></path><path d="M162.35,99.13a1.26,1.26,0,1,0,1.77-.15A1.26,1.26,0,0,0,162.35,99.13Z" style="fill:#e0e0e0"></path><path d="M162.78,98.62a1.26,1.26,0,0,0,.16,1.77,1.24,1.24,0,0,0,1.76-.15,1.26,1.26,0,0,0-1.92-1.62Z" style="fill:#f5f5f5"></path><path d="M163.17,85.23a1.54,1.54,0,1,0,1.47-1.61A1.54,1.54,0,0,0,163.17,85.23Z" style="fill:#e0e0e0"></path><path d="M163.13,84.41a1.55,1.55,0,1,0,1.48-1.61A1.54,1.54,0,0,0,163.13,84.41Z" style="fill:#f5f5f5"></path><path d="M156.67,96a.92.92,0,0,0,.11,1.3.91.91,0,0,0,1.29-.11.92.92,0,0,0-.11-1.3A.91.91,0,0,0,156.67,96Z" style="fill:#e0e0e0"></path><path d="M157,95.59a.92.92,0,0,0,.12,1.29.91.91,0,0,0,1.29-.11.92.92,0,0,0-.11-1.3A.93.93,0,0,0,157,95.59Z" style="fill:#f5f5f5"></path><path d="M149.61,80.91c.21.19.87-.19,1.46-.86a4.59,4.59,0,0,0,.5-.66c.24-.41.33-.76.19-.89s-.87.19-1.47.86S149.39,80.71,149.61,80.91Z" style="fill:#ebebeb"></path><path d="M158.45,75.8c.09.28.84.28,1.69,0a3.86,3.86,0,0,0,.76-.32c.42-.23.67-.49.62-.67s-.85-.28-1.7,0S158.36,75.53,158.45,75.8Z" style="fill:#ebebeb"></path><path d="M166.9,72.42c-.06.28.6.65,1.47.83a5.36,5.36,0,0,0,.82.1c.48,0,.83-.1.86-.29s-.6-.65-1.47-.83S167,72.13,166.9,72.42Z" style="fill:#ebebeb"></path><path d="M175.68,77.27c-.2.21.18.87.84,1.46a4.42,4.42,0,0,0,.66.5c.41.25.76.34.89.19s-.19-.87-.85-1.46S175.87,77.05,175.68,77.27Z" style="fill:#ebebeb"></path><path d="M156.19,91.31c-.22,1,.16,2,.85,2.14s1.44-.57,1.66-1.6-.16-2-.85-2.13S156.41,90.28,156.19,91.31Z" style="fill:#e0e0e0"></path><path d="M156.1,90.56c-.22,1,.16,2,.85,2.14s1.44-.56,1.66-1.59-.16-2-.85-2.14S156.33,89.53,156.1,90.56Z" style="fill:#f5f5f5"></path><path d="M164.53,90.4a1.91,1.91,0,1,0,2.69-.23A1.91,1.91,0,0,0,164.53,90.4Z" style="fill:#e0e0e0"></path><path d="M165.25,89.55a1.91,1.91,0,1,0,2.69-.23A1.91,1.91,0,0,0,165.25,89.55Z" style="fill:#f5f5f5"></path><g style="opacity:0.2"><path d="M175.14,99.34a1.16,1.16,0,1,0,.11,1.68A1.18,1.18,0,0,0,175.14,99.34Z" style="fill:#e0e0e0"></path></g><path d="M75.18,289.42V291a25.11,25.11,0,0,1,5.28.72,13.51,13.51,0,0,0,1.81,5.4,13.34,13.34,0,0,1-2.32,2.71L81,301.1a9.81,9.81,0,0,1,2.85-1.78,13.5,13.5,0,0,0,4.41,3.25,21.35,21.35,0,0,1-1.1,5l1.46.68a23.14,23.14,0,0,1,3-4.59,13.65,13.65,0,0,0,5.76-.24,13.41,13.41,0,0,1,1.51,3l1.53-.51a9.61,9.61,0,0,1-.55-3.39,13.62,13.62,0,0,0,3.68-2.6,21.28,21.28,0,0,1,4.55,2.47l1.07-1.22a24.63,24.63,0,0,1-3.5-4,13.35,13.35,0,0,0,1.42-3.36,13.16,13.16,0,0,1,3.34.19l.33-1.58a9.5,9.5,0,0,1-3.23-1.23,14,14,0,0,0-.44-4.5,22.68,22.68,0,0,1,4.65-2.85l-.52-1.53s-4,1.21-5.57,1a13.4,13.4,0,0,0-2.19-2.78,13.64,13.64,0,0,1,1.92-3l-1.2-1.05a9.44,9.44,0,0,1-3,2.33,13.69,13.69,0,0,0-3.66-1.62,23.15,23.15,0,0,1-.21-5.52l-1.56-.3s-1,4.23-1.92,5.33a13.56,13.56,0,0,0-9.66,4.12,4.37,4.37,0,0,1,.4-.43,23.23,23.23,0,0,1-4.88-2.6l-1,1.2s3.09,2.9,3.62,4.29a13.72,13.72,0,0,0-1.8,5A22.64,22.64,0,0,1,75.18,289.42Zm27.44-9.67-.39-.32Z" style="fill:#ebebeb"></path><path d="M87.54,274.28l1.51-.51a13.71,13.71,0,0,0,1.79,3.33,28.12,28.12,0,0,0-2.79.85A8.76,8.76,0,0,0,87.54,274.28Z" style="fill:#ebebeb"></path><path d="M83.87,288.35c.69.15,1.47-1,2.81-2.29.16-.18.35-.33.53-.5s.38-.34.58-.51a14.5,14.5,0,0,1,1.34-1A10.33,10.33,0,0,1,96,282.38a14.06,14.06,0,0,1,1.64.24l.75.18c.23.07.48.12.69.2,1.79.53,3,1.18,3.56.73a.71.71,0,0,0,.2-.51,2.16,2.16,0,0,0-.18-.85,6.37,6.37,0,0,0-1.82-2.36c-.24-.22-.51-.4-.79-.61s-.6-.37-.93-.56a11.25,11.25,0,0,0-4.93-1.29A11.1,11.1,0,0,0,88.48,279a11.33,11.33,0,0,0-2.19,1.6,11.49,11.49,0,0,0-1.58,1.83c-.2.32-.39.62-.55.93a7.26,7.26,0,0,0-.42.91,6.37,6.37,0,0,0-.52,2.93,2.15,2.15,0,0,0,.24.84A.62.62,0,0,0,83.87,288.35Z" style="fill:#fafafa"></path><path d="M111.4,281.4c-.28.09-.28.85,0,1.71a4.25,4.25,0,0,0,.32.77c.24.43.5.68.68.62s.28-.86,0-1.72S111.67,281.31,111.4,281.4Z" style="fill:#ebebeb"></path><path d="M111.36,291.73c-.29-.06-.68.6-.87,1.48a4.31,4.31,0,0,0-.11.83c0,.48.08.83.27.87s.68-.6.87-1.47S111.64,291.79,111.36,291.73Z" style="fill:#ebebeb"></path><path d="M110,300.85c-.22-.2-.88.19-1.48.86a4.16,4.16,0,0,0-.5.67c-.25.41-.34.77-.19.9s.88-.2,1.48-.87S110.23,301,110,300.85Z" style="fill:#ebebeb"></path><path d="M101.29,306.05c-.08-.28-.85-.28-1.71,0a5.09,5.09,0,0,0-.77.33c-.43.23-.68.49-.62.67s.85.29,1.71,0S101.38,306.33,101.29,306.05Z" style="fill:#ebebeb"></path><path d="M89.13,309c.12-.26-.43-.79-1.24-1.18a5.67,5.67,0,0,0-.79-.3c-.47-.12-.83-.11-.91.07s.43.79,1.24,1.18S89,309.22,89.13,309Z" style="fill:#ebebeb"></path><path d="M81.15,302c.23-.19-.06-.9-.64-1.59a4.81,4.81,0,0,0-.59-.6c-.38-.3-.71-.44-.86-.31s.06.89.64,1.59S80.93,302.17,81.15,302Z" style="fill:#ebebeb"></path><path d="M74.71,291.81c.29,0,.54-.72.55-1.62a3.69,3.69,0,0,0-.06-.84c-.08-.48-.25-.8-.44-.8s-.54.72-.56,1.62S74.41,291.8,74.71,291.81Z" style="fill:#ebebeb"></path><path d="M97.15,295.47c-.68.8-.79,1.83-.25,2.28s1.54.18,2.21-.63.79-1.83.25-2.28S97.83,294.66,97.15,295.47Z" style="fill:#e0e0e0"></path><path d="M98.22,295c-.68.81-.79,1.83-.25,2.29s1.53.17,2.21-.63.79-1.83.25-2.29S98.9,294.15,98.22,295Z" style="fill:#f5f5f5"></path><path d="M104.61,287.43c-.39-1-1.25-1.56-1.9-1.29s-.87,1.27-.48,2.24,1.25,1.56,1.9,1.29S105,288.4,104.61,287.43Z" style="fill:#e0e0e0"></path><path d="M105.69,287c-.4-1-1.25-1.55-1.91-1.29s-.87,1.28-.47,2.25,1.24,1.56,1.9,1.29S106.08,288,105.69,287Z" style="fill:#f5f5f5"></path><path d="M90.58,297.42a1.25,1.25,0,1,0,1.76-.15A1.24,1.24,0,0,0,90.58,297.42Z" style="fill:#e0e0e0"></path><path d="M91,296.9a1.26,1.26,0,1,0,1.77-.15A1.25,1.25,0,0,0,91,296.9Z" style="fill:#f5f5f5"></path><path d="M91.39,283.52a1.55,1.55,0,1,0,1.48-1.61A1.54,1.54,0,0,0,91.39,283.52Z" style="fill:#e0e0e0"></path><path d="M91.36,282.69a1.54,1.54,0,1,0,1.47-1.61A1.54,1.54,0,0,0,91.36,282.69Z" style="fill:#f5f5f5"></path><path d="M84.89,294.25a.91.91,0,0,0,.11,1.29.92.92,0,0,0,1.3-.11.91.91,0,0,0-.11-1.29A.92.92,0,0,0,84.89,294.25Z" style="fill:#e0e0e0"></path><path d="M85.21,293.87a.92.92,0,0,0,.11,1.3.92.92,0,0,0,1.19-1.41A.92.92,0,0,0,85.21,293.87Z" style="fill:#f5f5f5"></path><path d="M77.83,279.19c.22.19.87-.19,1.47-.85a5.08,5.08,0,0,0,.49-.66c.25-.42.33-.76.19-.89s-.87.19-1.46.85S77.62,279,77.83,279.19Z" style="fill:#ebebeb"></path><path d="M86.67,274.09c.09.27.85.27,1.7,0a4.45,4.45,0,0,0,.76-.32c.42-.23.67-.48.61-.67s-.85-.27-1.69,0S86.58,273.81,86.67,274.09Z" style="fill:#ebebeb"></path><path d="M95.12,270.7c-.06.28.6.66,1.47.84a4.28,4.28,0,0,0,.83.09c.48,0,.82-.09.86-.28s-.6-.66-1.48-.84S95.18,270.42,95.12,270.7Z" style="fill:#ebebeb"></path><path d="M103.9,275.55c-.19.22.19.87.85,1.47a4.59,4.59,0,0,0,.66.5c.41.24.75.33.88.19s-.18-.87-.84-1.47S104.09,275.34,103.9,275.55Z" style="fill:#ebebeb"></path><path d="M84.42,289.6c-.23,1,.15,2,.85,2.13s1.43-.56,1.65-1.59-.15-2-.85-2.14S84.64,288.57,84.42,289.6Z" style="fill:#e0e0e0"></path><path d="M84.33,288.85c-.22,1,.16,2,.85,2.13s1.43-.56,1.66-1.59-.16-2-.85-2.13S84.55,287.82,84.33,288.85Z" style="fill:#f5f5f5"></path><path d="M92.76,288.68a1.91,1.91,0,1,0,2.69-.23A1.9,1.9,0,0,0,92.76,288.68Z" style="fill:#e0e0e0"></path><path d="M93.47,287.83a1.91,1.91,0,1,0,2.69-.23A1.91,1.91,0,0,0,93.47,287.83Z" style="fill:#f5f5f5"></path><g style="opacity:0.2"><path d="M103.37,297.62a1.17,1.17,0,1,0,.1,1.69A1.2,1.2,0,0,0,103.37,297.62Z" style="fill:#e0e0e0"></path></g><path d="M476.15,96.49v1.16a17.87,17.87,0,0,1,3.79.52,9.7,9.7,0,0,0,1.3,3.88,10.11,10.11,0,0,1-1.66,2l.75.88a7.09,7.09,0,0,1,2.05-1.28,10.54,10.54,0,0,0,1,.93,9.84,9.84,0,0,0,2.21,1.41,14.8,14.8,0,0,1-.8,3.55l1.06.49a16.45,16.45,0,0,1,2.14-3.29,9.8,9.8,0,0,0,4.14-.17,10,10,0,0,1,1.09,2.14l1.1-.36a7,7,0,0,1-.41-2.43,9.86,9.86,0,0,0,2.65-1.88,15.26,15.26,0,0,1,3.27,1.78l.76-.87A18.46,18.46,0,0,1,498,102a9.3,9.3,0,0,0,1-2.42,9.47,9.47,0,0,1,2.4.14l.24-1.13a6.94,6.94,0,0,1-2.32-.89,9.76,9.76,0,0,0-.32-3.23,16.23,16.23,0,0,1,3.34-2.05l-.37-1.1a15.29,15.29,0,0,1-4,.71,9.82,9.82,0,0,0-1.57-2,9.17,9.17,0,0,1,1.38-2.18l-.86-.76a6.64,6.64,0,0,1-2.13,1.67,9.85,9.85,0,0,0-2.62-1.16,16.52,16.52,0,0,1-.15-4L491,83.47s-.69,3-1.37,3.83a9.73,9.73,0,0,0-6.94,3,3,3,0,0,1,.29-.31,16.73,16.73,0,0,1-3.51-1.87l-.75.87a14.53,14.53,0,0,1,2.6,3.08,9.57,9.57,0,0,0-1.29,3.6A16.28,16.28,0,0,1,476.15,96.49Zm19.71-6.95-.28-.22Z" style="fill:#ebebeb"></path><path d="M485,85.62l1.09-.37a9.75,9.75,0,0,0,1.28,2.39c-.7.15-2,.61-2,.61A6.23,6.23,0,0,0,485,85.62Z" style="fill:#ebebeb"></path><path d="M482.4,95.73c.49.1,1.05-.72,2-1.66.11-.12.25-.23.38-.35s.28-.24.42-.37c.3-.23.61-.48,1-.7a8,8,0,0,1,2.36-1,8.37,8.37,0,0,1,2.57-.18c.42,0,.81.11,1.18.18l.54.13c.17.05.34.08.5.14,1.29.38,2.16.85,2.55.52A.48.48,0,0,0,496,92a1.56,1.56,0,0,0-.13-.61,4.64,4.64,0,0,0-1.31-1.7,7.05,7.05,0,0,0-.57-.43c-.2-.14-.43-.27-.66-.41a8.55,8.55,0,0,0-1.62-.64A8.31,8.31,0,0,0,489.8,88a8.56,8.56,0,0,0-2.11.22,8.71,8.71,0,0,0-2,.79,8.23,8.23,0,0,0-1.58,1.15A8,8,0,0,0,483,91.44c-.14.23-.29.45-.4.67s-.22.44-.3.65a4.52,4.52,0,0,0-.37,2.11,1.48,1.48,0,0,0,.17.6A.47.47,0,0,0,482.4,95.73Z" style="fill:#fafafa"></path><path d="M502.16,90.73c-.2.06-.2.62,0,1.23a2.83,2.83,0,0,0,.24.55c.17.31.35.49.48.45s.21-.62,0-1.23S502.36,90.66,502.16,90.73Z" style="fill:#ebebeb"></path><path d="M502.13,98.15c-.2-.05-.48.43-.62,1.06a3.42,3.42,0,0,0-.08.6c0,.35.06.6.2.63s.48-.43.62-1.06S502.34,98.19,502.13,98.15Z" style="fill:#ebebeb"></path><path d="M501.17,104.7c-.16-.14-.63.13-1.07.62a3.75,3.75,0,0,0-.36.48c-.17.3-.24.55-.13.64s.63-.14,1.06-.62S501.33,104.84,501.17,104.7Z" style="fill:#ebebeb"></path><path d="M494.91,108.44c-.07-.2-.62-.21-1.23,0a4.32,4.32,0,0,0-.56.23c-.3.17-.49.36-.44.49s.61.2,1.23,0S495,108.64,494.91,108.44Z" style="fill:#ebebeb"></path><path d="M486.17,110.52c.09-.19-.31-.57-.89-.85a2.61,2.61,0,0,0-.56-.21c-.34-.09-.6-.08-.66,0s.31.57.89.85S486.08,110.71,486.17,110.52Z" style="fill:#ebebeb"></path><path d="M480.44,105.52c.16-.14,0-.65-.46-1.15a3.33,3.33,0,0,0-.42-.42c-.27-.22-.51-.32-.62-.23s0,.65.46,1.14S480.28,105.65,480.44,105.52Z" style="fill:#ebebeb"></path><path d="M475.81,98.21c.21,0,.39-.52.4-1.17a2.83,2.83,0,0,0,0-.6c-.06-.34-.18-.57-.32-.58s-.39.52-.4,1.17S475.6,98.2,475.81,98.21Z" style="fill:#ebebeb"></path><path d="M491.93,100.84c-.48.57-.56,1.31-.17,1.64s1.1.12,1.58-.46.57-1.31.18-1.64S492.42,100.26,491.93,100.84Z" style="fill:#e0e0e0"></path><path d="M492.7,100.47c-.49.57-.57,1.31-.18,1.64s1.1.12,1.59-.46.56-1.31.17-1.64S493.19,99.89,492.7,100.47Z" style="fill:#f5f5f5"></path><path d="M497.29,95.06c-.28-.7-.9-1.12-1.37-.93s-.62.92-.34,1.62.89,1.11,1.37.92S497.57,95.76,497.29,95.06Z" style="fill:#e0e0e0"></path><path d="M498.06,94.77c-.28-.7-.89-1.12-1.36-.93s-.63.92-.35,1.62.9,1.12,1.37.92S498.35,95.47,498.06,94.77Z" style="fill:#f5f5f5"></path><path d="M487.21,102.24a.9.9,0,1,0,1.27-.11A.9.9,0,0,0,487.21,102.24Z" style="fill:#e0e0e0"></path><path d="M487.52,101.87a.9.9,0,1,0,1.27-.11A.9.9,0,0,0,487.52,101.87Z" style="fill:#f5f5f5"></path><path d="M487.8,92.25a1.11,1.11,0,1,0,1.06-1.15A1.1,1.1,0,0,0,487.8,92.25Z" style="fill:#e0e0e0"></path><path d="M487.77,91.66a1.11,1.11,0,1,0,1.06-1.16A1.11,1.11,0,0,0,487.77,91.66Z" style="fill:#f5f5f5"></path><path d="M483.13,100a.65.65,0,0,0,.08.93.66.66,0,1,0,.85-1A.65.65,0,0,0,483.13,100Z" style="fill:#e0e0e0"></path><path d="M483.36,99.69a.65.65,0,0,0,.08.93.66.66,0,1,0,.85-1A.65.65,0,0,0,483.36,99.69Z" style="fill:#f5f5f5"></path><path d="M478.06,89.14c.15.14.62-.13,1.05-.61a4.55,4.55,0,0,0,.36-.47c.17-.3.23-.55.13-.64s-.62.14-1.05.61S477.9,89,478.06,89.14Z" style="fill:#ebebeb"></path><path d="M484.41,85.48c.06.2.6.2,1.21,0a2.33,2.33,0,0,0,.55-.23c.3-.16.48-.35.44-.48s-.61-.2-1.22,0S484.34,85.28,484.41,85.48Z" style="fill:#ebebeb"></path><path d="M490.48,83.05c-.05.2.43.47,1,.6a4.68,4.68,0,0,0,.59.07c.35,0,.59-.07.62-.21s-.43-.47-1.06-.6S490.52,82.84,490.48,83.05Z" style="fill:#ebebeb"></path><path d="M496.78,86.53c-.14.16.13.63.61,1.06a3.35,3.35,0,0,0,.47.35c.3.18.55.24.64.14s-.14-.62-.61-1S496.92,86.38,496.78,86.53Z" style="fill:#ebebeb"></path><path d="M482.79,96.62c-.16.74.11,1.42.61,1.53s1-.4,1.19-1.14-.12-1.43-.61-1.54S483,95.88,482.79,96.62Z" style="fill:#e0e0e0"></path><path d="M482.72,96.08c-.16.74.12,1.43.61,1.53s1-.4,1.19-1.14-.11-1.43-.61-1.53S482.88,95.34,482.72,96.08Z" style="fill:#f5f5f5"></path><path d="M488.78,96a1.37,1.37,0,1,0,1.93-.16A1.37,1.37,0,0,0,488.78,96Z" style="fill:#e0e0e0"></path><path d="M489.29,95.35a1.37,1.37,0,1,0,1.93-.16A1.37,1.37,0,0,0,489.29,95.35Z" style="fill:#f5f5f5"></path><g style="opacity:0.2"><path d="M496.4,102.38a.84.84,0,1,0-1.14,1.23.84.84,0,1,0,1.14-1.23Z" style="fill:#e0e0e0"></path></g><path d="M456.91,348.07v2.68s6.1.23,8.76,1.21a22.67,22.67,0,0,0,3,9,22.21,22.21,0,0,1-3.84,4.51l1.75,2a16.35,16.35,0,0,1,4.74-2.95,22.26,22.26,0,0,0,7.32,5.4c-.23,1.82-.83,6.06-1.84,8.23l2.44,1.13s2.95-5.8,5-7.63a22.66,22.66,0,0,0,9.56-.38,21.6,21.6,0,0,1,2.52,5l2.55-.85a16,16,0,0,1-.93-5.63,22.29,22.29,0,0,0,6.11-4.32c1.59.67,5.71,2.49,7.57,4.11l1.76-2s-4.41-4.13-5.8-6.62a22.33,22.33,0,0,0,2.36-5.58,21.45,21.45,0,0,1,5.54.32L516,353a15.89,15.89,0,0,1-5.36-2.05,23,23,0,0,0-.73-7.47c.94-.72,5.13-3.85,7.71-4.74l-.86-2.54s-6.71,2-9.24,1.65a22.4,22.4,0,0,0-3.63-4.61,21.86,21.86,0,0,1,3.18-5.06l-2-1.74s-2.66,3.09-4.91,3.87a22.14,22.14,0,0,0-6.08-2.7c0-.27-.89-6.22-.34-9.16l-2.6-.5s-1.61,7-3.18,8.86a22.56,22.56,0,0,0-16.06,6.84,6.82,6.82,0,0,1,.68-.71s-5.8-2.32-8.12-4.32l-1.74,2s5.15,4.81,6,7.13a22.36,22.36,0,0,0-3,8.33C464.66,346.44,459.65,348.07,456.91,348.07ZM502.5,332l-.66-.52C502.06,331.64,502.28,331.81,502.5,332Z" style="fill:#ebebeb"></path><path d="M477.45,322.91l2.51-.84a22.58,22.58,0,0,0,3,5.53c-1.63.34-4.65,1.41-4.65,1.41C478.79,326.68,477.45,322.91,477.45,322.91Z" style="fill:#ebebeb"></path><path d="M471.35,346.29c1.15.24,2.44-1.65,4.66-3.81.26-.29.59-.55.88-.84s.64-.55,1-.84a25.16,25.16,0,0,1,2.23-1.62,17.36,17.36,0,0,1,11.41-2.81,25,25,0,0,1,2.72.4c.42.11.85.19,1.25.3s.79.2,1.16.33c3,.89,5,2,5.9,1.21a1.09,1.09,0,0,0,.34-.84,3.55,3.55,0,0,0-.31-1.42,10.55,10.55,0,0,0-3-3.91,14.1,14.1,0,0,0-1.31-1c-.48-.33-1-.63-1.54-.94a19.18,19.18,0,0,0-3.74-1.48,18.52,18.52,0,0,0-4.46-.65,18.25,18.25,0,0,0-9.47,2.33,18.43,18.43,0,0,0-6.26,5.7c-.34.53-.66,1-.93,1.55a12.38,12.38,0,0,0-.69,1.5,10.47,10.47,0,0,0-.86,4.86,3.5,3.5,0,0,0,.39,1.4A1.08,1.08,0,0,0,471.35,346.29Z" style="fill:#fafafa"></path><path d="M517.07,334.74c-.47.15-.47,1.42,0,2.85a8.07,8.07,0,0,0,.55,1.28c.39.7.82,1.12,1.13,1s.46-1.42,0-2.85S517.53,334.59,517.07,334.74Z" style="fill:#ebebeb"></path><path d="M517,351.9c-.48-.11-1.12,1-1.45,2.45a8.22,8.22,0,0,0-.17,1.38c0,.81.14,1.39.45,1.46.47.1,1.12-1,1.44-2.46S517.47,352,517,351.9Z" style="fill:#ebebeb"></path><path d="M514.77,367c-.37-.32-1.47.32-2.47,1.43a8.47,8.47,0,0,0-.83,1.12c-.41.69-.56,1.27-.32,1.49s1.47-.32,2.47-1.43S515.13,367.36,514.77,367Z" style="fill:#ebebeb"></path><path d="M500.29,375.69c-.15-.47-1.42-.47-2.85,0a8.65,8.65,0,0,0-1.28.54c-.71.39-1.13.82-1,1.13.15.46,1.42.47,2.85,0S500.44,376.15,500.29,375.69Z" style="fill:#ebebeb"></path><path d="M480.08,380.51c.21-.44-.71-1.32-2.06-2a7.06,7.06,0,0,0-1.3-.49c-.78-.21-1.38-.19-1.52.1-.21.44.71,1.32,2.05,2S479.87,380.94,480.08,380.51Z" style="fill:#ebebeb"></path><path d="M466.83,368.94c.37-.32-.1-1.5-1.06-2.65a8.26,8.26,0,0,0-1-1c-.62-.51-1.18-.73-1.42-.53s.1,1.5,1.06,2.64S466.46,369.25,466.83,368.94Z" style="fill:#ebebeb"></path><path d="M456.13,352c.49,0,.9-1.2.92-2.69A7.44,7.44,0,0,0,457,348c-.14-.79-.41-1.33-.73-1.34-.49,0-.9,1.2-.93,2.7S455.64,352,456.13,352Z" style="fill:#ebebeb"></path><path d="M493.41,358.11c-1.13,1.34-1.31,3-.41,3.8s2.54.29,3.67-1.05,1.31-3,.41-3.8S494.54,356.77,493.41,358.11Z" style="fill:#e0e0e0"></path><path d="M495.18,357.26c-1.13,1.33-1.32,3-.42,3.79s2.55.29,3.67-1.05,1.32-3,.42-3.79S496.3,355.92,495.18,357.26Z" style="fill:#f5f5f5"></path><path d="M505.79,344.75c-.65-1.62-2.06-2.58-3.16-2.14s-1.44,2.11-.79,3.73,2.07,2.59,3.16,2.15S506.45,346.37,505.79,344.75Z" style="fill:#e0e0e0"></path><path d="M507.58,344.08c-.65-1.62-2.07-2.58-3.16-2.14s-1.44,2.12-.79,3.74,2.07,2.58,3.16,2.14S508.24,345.71,507.58,344.08Z" style="fill:#f5f5f5"></path><path d="M482.48,361.35a2.09,2.09,0,1,0,2.94-.25A2.09,2.09,0,0,0,482.48,361.35Z" style="fill:#e0e0e0"></path><path d="M483.2,360.5a2.08,2.08,0,1,0,2.94-.25A2.08,2.08,0,0,0,483.2,360.5Z" style="fill:#f5f5f5"></path><path d="M483.84,338.26a2.56,2.56,0,1,0,2.45-2.67A2.57,2.57,0,0,0,483.84,338.26Z" style="fill:#e0e0e0"></path><path d="M483.78,336.89a2.56,2.56,0,1,0,2.45-2.67A2.57,2.57,0,0,0,483.78,336.89Z" style="fill:#f5f5f5"></path><path d="M473,356.08a1.53,1.53,0,1,0,2.16-.18A1.54,1.54,0,0,0,473,356.08Z" style="fill:#e0e0e0"></path><path d="M473.57,355.45a1.53,1.53,0,1,0,2.15-.18A1.54,1.54,0,0,0,473.57,355.45Z" style="fill:#f5f5f5"></path><path d="M461.32,331.07c.36.32,1.45-.31,2.43-1.41a7.45,7.45,0,0,0,.82-1.1c.41-.69.55-1.26.32-1.48s-1.45.32-2.43,1.42S461,330.75,461.32,331.07Z" style="fill:#ebebeb"></path><path d="M476,322.6c.15.45,1.41.46,2.81,0a6.83,6.83,0,0,0,1.27-.54c.7-.38,1.11-.8,1-1.11s-1.41-.46-2.82,0S475.85,322.14,476,322.6Z" style="fill:#ebebeb"></path><path d="M490,317c-.1.47,1,1.09,2.44,1.39a7.91,7.91,0,0,0,1.37.16c.79,0,1.36-.16,1.43-.47.09-.47-1-1.09-2.45-1.39S490.13,316.5,490,317Z" style="fill:#ebebeb"></path><path d="M504.62,325c-.33.36.3,1.45,1.4,2.44a7.45,7.45,0,0,0,1.1.82c.68.41,1.26.56,1.47.32s-.31-1.44-1.41-2.43S504.94,324.67,504.62,325Z" style="fill:#ebebeb"></path><path d="M472.25,348.36c-.37,1.71.27,3.29,1.42,3.54s2.38-.93,2.75-2.64-.26-3.3-1.41-3.55S472.62,346.65,472.25,348.36Z" style="fill:#e0e0e0"></path><path d="M472.11,347.11c-.37,1.71.26,3.3,1.41,3.55s2.38-.93,2.75-2.64-.26-3.3-1.41-3.55S472.48,345.4,472.11,347.11Z" style="fill:#f5f5f5"></path><path d="M486.11,346.84a3.17,3.17,0,1,0,4.46-.38A3.16,3.16,0,0,0,486.11,346.84Z" style="fill:#e0e0e0"></path><path d="M487.3,345.43a3.17,3.17,0,1,0,4.46-.38A3.16,3.16,0,0,0,487.3,345.43Z" style="fill:#f5f5f5"></path><g style="opacity:0.2"><path d="M503.73,361.68a1.94,1.94,0,1,0,.18,2.8A2,2,0,0,0,503.73,361.68Z" style="fill:#e0e0e0"></path></g><path d="M568,151.08l-.51-.7-.29-.38a5.54,5.54,0,0,1-.29-.5,8,8,0,0,1-.66-1.31c-.1-.26-.22-.52-.33-.82l-.26-.94a6.5,6.5,0,0,1-.21-1.05,10.14,10.14,0,0,1-.16-1.16,21.73,21.73,0,0,1,.25-5.58,50.48,50.48,0,0,1,5.13-14.43,112.77,112.77,0,0,1,11-17.11A174.82,174.82,0,0,1,598,88.67a200.83,200.83,0,0,1,21.54-18.39c4-3,8.27-5.82,12.74-8.52a123.64,123.64,0,0,1,14.14-7.42,66,66,0,0,1,15.74-4.93,27.82,27.82,0,0,1,8.4-.21,15.53,15.53,0,0,1,4,1.17,11.44,11.44,0,0,1,3.4,2.49,11.63,11.63,0,0,1,2.1,3.66,16,16,0,0,1,.7,4.17A27.76,27.76,0,0,1,679.69,69,65.79,65.79,0,0,1,673,84.08a122.52,122.52,0,0,1-9,13.22c-3.2,4.13-6.53,8-9.92,11.68a200.62,200.62,0,0,1-20.73,19.31,173.45,173.45,0,0,1-20.18,14.21,112.84,112.84,0,0,1-18.25,9A50.12,50.12,0,0,1,580,154.93a21.45,21.45,0,0,1-5.57-.38,11.63,11.63,0,0,1-1.13-.29,6.1,6.1,0,0,1-1-.34l-.91-.36c-.28-.14-.53-.29-.77-.42a7.49,7.49,0,0,1-1.23-.8c-.17-.12-.33-.23-.46-.34l-.35-.34c-.41-.39-.63-.58-.63-.58s.2.21.61.61l.34.34c.13.11.29.22.46.35a7.37,7.37,0,0,0,1.22.82c.25.13.5.29.78.43l.91.37a6.11,6.11,0,0,0,1,.35c.37.09.73.24,1.14.3a21.56,21.56,0,0,0,5.6.41,49.89,49.89,0,0,0,15-3.4,112.1,112.1,0,0,0,18.31-9,175.65,175.65,0,0,0,20.24-14.19,201,201,0,0,0,20.77-19.32c3.4-3.66,6.74-7.56,9.95-11.7a124.54,124.54,0,0,0,9-13.24A66.06,66.06,0,0,0,680,69.09a27.69,27.69,0,0,0,1.17-8.42,15.84,15.84,0,0,0-.72-4.25,10.45,10.45,0,0,0-5.67-6.35,16.35,16.35,0,0,0-4.14-1.2,28.13,28.13,0,0,0-8.5.21,66.39,66.39,0,0,0-15.82,5,122.58,122.58,0,0,0-14.17,7.45c-4.48,2.7-8.73,5.58-12.76,8.54a201.37,201.37,0,0,0-21.55,18.44A173.86,173.86,0,0,0,581.44,107a112.21,112.21,0,0,0-11,17.17,49.79,49.79,0,0,0-5.08,14.49,21.43,21.43,0,0,0-.23,5.61,10.62,10.62,0,0,0,.17,1.17,8.11,8.11,0,0,0,.22,1c.1.33.19.65.27,1s.24.56.34.82a8.36,8.36,0,0,0,.67,1.31c.11.18.2.35.3.5l.3.37Z" style="fill:#ebebeb"></path><path d="M547.59,101.92s0-.29.08-.86c0-.14,0-.3,0-.47s.08-.37.12-.57a7.89,7.89,0,0,1,.38-1.41c.1-.26.18-.54.3-.83s.28-.57.44-.88a6.84,6.84,0,0,1,.53-.93,11,11,0,0,1,.65-1A22,22,0,0,1,554,91a50,50,0,0,1,13.43-7.36,112.74,112.74,0,0,1,19.6-5.44,175,175,0,0,1,24.52-2.84A201.78,201.78,0,0,1,639.9,76c5,.47,10,1.16,15.17,2.12A121,121,0,0,1,670.56,82a66,66,0,0,1,15,6.79,27.74,27.74,0,0,1,6.4,5.44,15.8,15.8,0,0,1,2.25,3.57,10.16,10.16,0,0,1,0,8.25,15.86,15.86,0,0,1-2.25,3.58,27.46,27.46,0,0,1-6.4,5.43,65.57,65.57,0,0,1-15,6.8,122.87,122.87,0,0,1-15.5,3.89c-5.13,1-10.21,1.64-15.17,2.11a198.93,198.93,0,0,1-28.33.62,174.9,174.9,0,0,1-24.51-2.83,111.83,111.83,0,0,1-19.6-5.45A50.23,50.23,0,0,1,554,112.84a22.08,22.08,0,0,1-3.91-4,11,11,0,0,1-.65-1,5.82,5.82,0,0,1-.53-.93c-.16-.3-.3-.6-.44-.87s-.2-.57-.3-.83a8.12,8.12,0,0,1-.38-1.41c0-.21-.09-.4-.12-.57s0-.34,0-.48c0-.57-.08-.86-.08-.86s0,.29,0,.86l0,.48c0,.18.07.37.11.58a7.3,7.3,0,0,0,.37,1.42c.09.26.18.55.29.83l.43.89a6.46,6.46,0,0,0,.54.94,10.91,10.91,0,0,0,.64,1,22.16,22.16,0,0,0,3.91,4,49.87,49.87,0,0,0,13.44,7.44,113,113,0,0,0,19.62,5.5,175.19,175.19,0,0,0,24.55,2.88,202.13,202.13,0,0,0,28.36-.59c5-.47,10.07-1.15,15.21-2.11a123.88,123.88,0,0,0,15.54-3.89,66.2,66.2,0,0,0,15.11-6.83,28.08,28.08,0,0,0,6.48-5.5,16.09,16.09,0,0,0,2.29-3.66,10.46,10.46,0,0,0,0-8.51A16,16,0,0,0,692.25,94a28.08,28.08,0,0,0-6.48-5.5,66.32,66.32,0,0,0-15.1-6.83,122.53,122.53,0,0,0-15.54-3.88c-5.15-1-10.23-1.64-15.21-2.11a199.14,199.14,0,0,0-28.36-.59A173.56,173.56,0,0,0,587,78a112,112,0,0,0-19.63,5.5A50,50,0,0,0,554,90.91a22.16,22.16,0,0,0-3.91,4,11,11,0,0,0-.64,1,6.38,6.38,0,0,0-.54.93l-.43.89c-.11.29-.2.57-.29.83a7.38,7.38,0,0,0-.37,1.43c0,.21-.09.4-.11.57l0,.48C547.6,101.63,547.59,101.92,547.59,101.92Z" style="fill:#ebebeb"></path><path d="M574.57,40.74l.72-.47.4-.26c.16-.09.34-.16.53-.26a8,8,0,0,1,1.35-.56c.26-.08.54-.19.83-.27l1-.19a6,6,0,0,1,1.07-.15,10.57,10.57,0,0,1,1.16-.08,22.26,22.26,0,0,1,5.55.64,50.16,50.16,0,0,1,14,6.11A112.28,112.28,0,0,1,617.5,57.4,176.12,176.12,0,0,1,634.76,75,203.37,203.37,0,0,1,651.62,97.8c2.67,4.22,5.24,8.65,7.62,13.29a123.74,123.74,0,0,1,6.43,14.63,66.15,66.15,0,0,1,3.84,16,27.82,27.82,0,0,1-.38,8.39,15.7,15.7,0,0,1-1.45,4,10.1,10.1,0,0,1-6.51,5.06,16.07,16.07,0,0,1-4.2.42,27.72,27.72,0,0,1-8.22-1.73,66.4,66.4,0,0,1-14.59-7.71,125.06,125.06,0,0,1-12.56-9.87c-3.9-3.47-7.55-7.06-11-10.7a201.05,201.05,0,0,1-17.84-22A174.52,174.52,0,0,1,580,86.46a112.59,112.59,0,0,1-7.71-18.83,50.06,50.06,0,0,1-2.41-15.12,22.1,22.1,0,0,1,.76-5.53c.09-.4.26-.75.37-1.11a5.87,5.87,0,0,1,.41-1l.42-.88c.16-.27.33-.51.47-.75a7.94,7.94,0,0,1,.88-1.16c.14-.16.26-.32.38-.44l.36-.33.63-.58s-.23.18-.66.56l-.36.32c-.12.12-.24.28-.38.43a7,7,0,0,0-.9,1.17c-.15.23-.32.47-.48.74s-.29.57-.44.88a6,6,0,0,0-.41,1,11.1,11.1,0,0,0-.38,1.11,21.72,21.72,0,0,0-.8,5.56,49.92,49.92,0,0,0,2.36,15.18,113,113,0,0,0,7.68,18.88,175.41,175.41,0,0,0,12.76,21.16,200.38,200.38,0,0,0,17.85,22.06c3.42,3.64,7.07,7.24,11,10.72a121.8,121.8,0,0,0,12.59,9.9,66.4,66.4,0,0,0,14.66,7.76,27.88,27.88,0,0,0,8.32,1.75,16.37,16.37,0,0,0,4.29-.43,10.38,10.38,0,0,0,6.72-5.22,16,16,0,0,0,1.49-4.05,28.19,28.19,0,0,0,.37-8.49A66.12,66.12,0,0,0,666,125.61,123.56,123.56,0,0,0,659.52,111c-2.39-4.66-5-9.09-7.65-13.31A197.42,197.42,0,0,0,635,74.87a173.15,173.15,0,0,0-17.31-17.64,112.2,112.2,0,0,0-16.37-12.14A50.13,50.13,0,0,0,587.17,39a22.38,22.38,0,0,0-5.58-.61c-.41,0-.8.07-1.17.09a5.85,5.85,0,0,0-1.07.16l-1,.2c-.3.08-.57.19-.84.28a7.49,7.49,0,0,0-1.35.58l-.52.26-.39.27Z" style="fill:#ebebeb"></path><path d="M696.09,132.4a2.74,2.74,0,1,0,3.88,0A2.75,2.75,0,0,0,696.09,132.4Z" style="fill:#ebebeb"></path><path d="M541.35,47.41a2.74,2.74,0,1,0,2.74-2.74A2.75,2.75,0,0,0,541.35,47.41Z" style="fill:#ebebeb"></path><path d="M678.77,141.42a.7.7,0,1,0,.7-.7A.7.7,0,0,0,678.77,141.42Z" style="fill:#ebebeb"></path><path d="M663.89,64.57a.7.7,0,1,0,.7-.7A.7.7,0,0,0,663.89,64.57Z" style="fill:#ebebeb"></path><path d="M555.12,101.92a.7.7,0,0,0,1.4,0,.7.7,0,0,0-1.4,0Z" style="fill:#ebebeb"></path><path d="M545.44,69.43a.7.7,0,1,0,.7-.7A.69.69,0,0,0,545.44,69.43Z" style="fill:#ebebeb"></path><path d="M586,60.91,622.8,47.34l36.47,13.38C663.93,63,668,64.33,668,68.78V90.93A85.42,85.42,0,0,1,656,135a75.59,75.59,0,0,1-33.56,30.4c-14.91-5-26-18.21-32.85-29.54a85.41,85.41,0,0,1-12-44.09V71.88C577.58,65.53,580.86,62.43,586,60.91Z" style="fill:#ebebeb"></path><path d="M593.24,69.9a16.58,16.58,0,0,1-1.76.85,7.89,7.89,0,0,0-3.79,3.8,9.45,9.45,0,0,0-.72,3.87c0,1.51,0,3.15.07,4.92,0,3.55.09,7.61.15,12.12a68.79,68.79,0,0,0,7.71,30.48,70.72,70.72,0,0,0,11,15.49,42.64,42.64,0,0,0,16.92,11.34l-.76,0a67,67,0,0,0,6.6-3.55,63.44,63.44,0,0,0,6.24-4.5,61.18,61.18,0,0,0,10.76-11.62A67,67,0,0,0,657.86,99c.23-2.9.2-5.77.21-8.64s0-5.67,0-8.43c0-1.38,0-2.75,0-4.1v-1a9.27,9.27,0,0,0,0-.94,3.43,3.43,0,0,0-.42-1.49,6.51,6.51,0,0,0-2.6-2.17c-1.08-.59-2.26-1.11-3.41-1.68l.08,0L622.56,59.65H623c-9.34,3.35-16.77,6-21.87,7.72-2.55.88-4.52,1.54-5.86,2a9,9,0,0,1-2.06.56,8.65,8.65,0,0,1,1.94-.92c1.3-.55,3.23-1.32,5.74-2.31,5-2,12.37-4.79,21.64-8.3l.23-.09.24.09L652.37,68.9h0l.05,0c1.12.55,2.3,1,3.5,1.69a8.29,8.29,0,0,1,3.35,2.84,5.3,5.3,0,0,1,.69,2.31c0,.42,0,.74,0,1.07v1c0,1.35,0,2.72,0,4.1q0,4.14,0,8.43c0,2.84,0,5.79-.17,8.79a70.19,70.19,0,0,1-3.65,18,67.41,67.41,0,0,1-8.84,17.14,62.4,62.4,0,0,1-11.15,12,64.66,64.66,0,0,1-6.48,4.64,67.62,67.62,0,0,1-6.85,3.66l-.37.17-.39-.13a44.3,44.3,0,0,1-17.69-12,71.89,71.89,0,0,1-11.19-16,68.07,68.07,0,0,1-5.84-16.41,69.74,69.74,0,0,1-1.59-14.89c0-4.51.09-8.57.13-12.13,0-1.77.06-3.42.09-4.94a10,10,0,0,1,1-4.15,7.31,7.31,0,0,1,2.15-2.63,8.76,8.76,0,0,1,2.13-1.2A5.15,5.15,0,0,1,593.24,69.9Z" style="fill:#e0e0e0"></path><polygon points="600.42 100.44 617.8 100.44 617.8 83.06 627.79 83.06 627.79 100.44 645.17 100.44 645.17 110.43 627.79 110.43 627.79 127.81 617.8 127.81 617.8 110.43 600.42 110.43 600.42 100.44" style="fill:#fff"></polygon></g><g id="freepik--Virus--inject-49"><path d="M449.39,291.35l1.52.88a26.8,26.8,0,0,1,3.56-4.58,14.84,14.84,0,0,0,6,1.22,14.57,14.57,0,0,1,1.31,3.66l1.72-.32a10.79,10.79,0,0,1-.1-3.67,15.46,15.46,0,0,0,1.93-.54,14.51,14.51,0,0,0,3.49-1.84A22.49,22.49,0,0,1,473,289.9l1.44-1s-2.33-3.59-2.7-5.33a14.77,14.77,0,0,0,2.9-5.53,14.21,14.21,0,0,1,3.65.19l.35-1.72a10.32,10.32,0,0,1-3.5-1.33,14.93,14.93,0,0,0-.46-4.86,23.21,23.21,0,0,1,4.81-2.95l-.57-1.66a26.4,26.4,0,0,1-5.66,1.12,14.86,14.86,0,0,0-2.39-3.15,14.88,14.88,0,0,1,2-3.05l-1.31-1.16a10.39,10.39,0,0,1-2.94,2.36,14.81,14.81,0,0,0-4.45-2,24.31,24.31,0,0,1-.16-5.93l-1.72-.34s-1.07,4.5-2.11,5.79a14.16,14.16,0,0,0-3.78.55,14.32,14.32,0,0,1-1.83-3.47l-1.64.56a10.65,10.65,0,0,1,.6,4.05,14.62,14.62,0,0,0-3.52,2.57,25.93,25.93,0,0,1-5.32-2.81l-1.13,1.31s3.47,3.23,4,4.71a14.84,14.84,0,0,0-1.32,3.13,14.22,14.22,0,0,1-4-.15l-.35,1.7a9.87,9.87,0,0,1,3.77,1.53,14.17,14.17,0,0,0,.36,4.52,26,26,0,0,1-5.14,3.18l.56,1.64s4.46-1.36,6-1.08a14.47,14.47,0,0,0,3.73,4.4A24.5,24.5,0,0,1,449.39,291.35ZM456,260h0Z" style="fill:#F36565"></path><g style="opacity:0.1"><path d="M453.11,282.58c.51-.58-.14-1.93-.64-3.9-.08-.24-.12-.5-.19-.76s-.1-.55-.16-.83a16.37,16.37,0,0,1-.19-1.79,11.29,11.29,0,0,1,2.14-7.39,14.76,14.76,0,0,1,1.12-1.41c.19-.21.38-.42.57-.61s.38-.39.57-.55c1.47-1.4,2.74-2.2,2.62-2.95a.75.75,0,0,0-.37-.47,2.32,2.32,0,0,0-.91-.29,6.85,6.85,0,0,0-3.2.43,7.63,7.63,0,0,0-1,.42c-.35.16-.69.36-1,.56a12.65,12.65,0,0,0-2.06,1.64,12.26,12.26,0,0,0-1.83,2.31,12.72,12.72,0,0,0-1.31,2.95,12.36,12.36,0,0,0-.46,3.19,12,12,0,0,0,.31,2.93,11.66,11.66,0,0,0,.87,2.48c.19.37.37.72.57,1a8.61,8.61,0,0,0,.63.88,7,7,0,0,0,2.48,2.08,2.17,2.17,0,0,0,.92.23A.7.7,0,0,0,453.11,282.58Z" style="fill:#fff"></path></g><path d="M461.51,252.87c-.07.31.66.73,1.61.93a4.49,4.49,0,0,0,.91.11c.52,0,.9-.1,1-.3s-.66-.73-1.62-.93S461.57,252.56,461.51,252.87Z" style="fill:#F36565"></path><path d="M464,253.91a5.69,5.69,0,0,1-1.71-.38c-.08.31-.17.67-.27,1a5.64,5.64,0,0,0,1.92-.27Z" style="opacity:0.30000000000000004"></path><path d="M471.22,258.52c-.22.24.2,1,.92,1.62a4.18,4.18,0,0,0,.72.55c.45.28.83.38,1,.22s-.2-1-.92-1.62S471.43,258.29,471.22,258.52Z" style="fill:#F36565"></path><path d="M472.8,260.65a3.82,3.82,0,0,1-1.29-1.19c-.21.24-.46.5-.73.76a5.82,5.82,0,0,0,1.77.73Z" style="opacity:0.30000000000000004"></path><path d="M479.08,264.74c-.31.1-.3.93,0,1.86a5.57,5.57,0,0,0,.36.84c.26.46.54.73.74.67s.3-.94,0-1.87S479.38,264.64,479.08,264.74Z" style="fill:#F36565"></path><path d="M479.41,267.37a5.56,5.56,0,0,1-.54-1.67l-1,.29a5.65,5.65,0,0,0,1.21,1.52Z" style="opacity:0.30000000000000004"></path><path d="M479.24,275.78c-.31-.07-.73.65-.93,1.61a5.2,5.2,0,0,0-.12.9c0,.53.1.91.3.95s.73-.65.94-1.61S479.55,275.85,479.24,275.78Z" style="fill:#F36565"></path><path d="M478.19,278.22a3.91,3.91,0,0,1,.4-1.72c-.33-.06-.67-.14-1-.24a5.41,5.41,0,0,0,.26,1.89Z" style="opacity:0.30000000000000004"></path><path d="M475.37,288.82c-.18-.26-1,0-1.79.52a4.92,4.92,0,0,0-.71.58c-.37.37-.55.72-.43.9s1,0,1.79-.53S475.55,289.08,475.37,288.82Z" style="fill:#F36565"></path><path d="M472.93,289.86a5.8,5.8,0,0,1,1.46-1l-.57-.91a5.82,5.82,0,0,0-1.13,1.58Z" style="opacity:0.30000000000000004"></path><path d="M464.47,292.55c-.05-.32-.88-.43-1.84-.27a4.65,4.65,0,0,0-.88.24c-.5.19-.81.43-.77.64s.88.43,1.85.26S464.53,292.86,464.47,292.55Z" style="fill:#F36565"></path><path d="M461.82,292.49a3.91,3.91,0,0,1,1.73-.28c-.06-.32-.12-.67-.16-1a5.64,5.64,0,0,0-1.65,1Z" style="opacity:0.30000000000000004"></path><path d="M451.38,293.09c.17-.28-.38-.91-1.22-1.41a5,5,0,0,0-.82-.39c-.5-.19-.89-.21-1,0s.39.91,1.23,1.41S451.22,293.36,451.38,293.09Z" style="fill:#F36565"></path><path d="M449.41,291.31a5.69,5.69,0,0,1,1.5.92c.17-.27.38-.59.59-.9a5.83,5.83,0,0,0-1.91-.36Z" style="opacity:0.30000000000000004"></path><path d="M467,273.93c.39,1.08,1.29,1.74,2,1.48s1-1.35.61-2.43-1.29-1.74-2-1.47S466.64,272.85,467,273.93Z" style="opacity:0.30000000000000004"></path><path d="M467.12,272.65c.39,1.08,1.29,1.74,2,1.47s1-1.34.6-2.42-1.29-1.74-2-1.47S466.73,271.57,467.12,272.65Z" style="fill:#F36565"></path><path d="M467.12,272.65c.39,1.08,1.29,1.74,2,1.47s1-1.34.6-2.42-1.29-1.74-2-1.47S466.73,271.57,467.12,272.65Z" style="fill:#fff;opacity:0.2"></path><path d="M463.5,262.54c-1.13-.16-2.14.33-2.25,1.09s.73,1.51,1.86,1.67,2.14-.33,2.25-1.09S464.63,262.7,463.5,262.54Z" style="opacity:0.30000000000000004"></path><path d="M463.71,261.31c-1.14-.16-2.14.32-2.25,1.09s.72,1.51,1.86,1.67,2.14-.33,2.25-1.09S464.84,261.46,463.71,261.31Z" style="fill:#F36565"></path><path d="M463.71,261.31c-1.14-.16-2.14.32-2.25,1.09s.72,1.51,1.86,1.67,2.14-.33,2.25-1.09S464.84,261.46,463.71,261.31Z" style="fill:#fff;opacity:0.2"></path><path d="M465.29,281.19a1.37,1.37,0,1,0,.82-1.75A1.37,1.37,0,0,0,465.29,281.19Z" style="opacity:0.30000000000000004"></path><path d="M465,280.5a1.37,1.37,0,1,0,.82-1.75A1.37,1.37,0,0,0,465,280.5Z" style="fill:#F36565"></path><path d="M465,280.5a1.37,1.37,0,1,0,.82-1.75A1.37,1.37,0,0,0,465,280.5Z" style="fill:#fff;opacity:0.30000000000000004"></path><path d="M452.64,272.86a1.68,1.68,0,1,0-.72-2.26A1.67,1.67,0,0,0,452.64,272.86Z" style="opacity:0.30000000000000004"></path><path d="M451.84,272.45a1.68,1.68,0,1,0-.71-2.26A1.68,1.68,0,0,0,451.84,272.45Z" style="fill:#F36565"></path><path d="M451.84,272.45a1.68,1.68,0,1,0-.71-2.26A1.68,1.68,0,0,0,451.84,272.45Z" style="fill:#fff;opacity:0.30000000000000004"></path><path d="M441.2,283.29c.29-.1.29-.93,0-1.84a4.3,4.3,0,0,0-.36-.83c-.25-.46-.53-.73-.73-.66s-.29.92,0,1.84S440.9,283.39,441.2,283.29Z" style="fill:#F36565"></path><path d="M440.87,280.69a5.37,5.37,0,0,1,.52,1.65l1-.29a5.67,5.67,0,0,0-1.19-1.5Z" style="opacity:0.30000000000000004"></path><path d="M441.19,272.19c.31.06.72-.65.93-1.59a5.12,5.12,0,0,0,.11-.9c0-.52-.1-.89-.3-.94s-.72.65-.92,1.6S440.88,272.12,441.19,272.19Z" style="fill:#F36565"></path><path d="M442.23,269.78a3.86,3.86,0,0,1-.39,1.69c.32.06.66.15,1,.24a5.49,5.49,0,0,0-.26-1.86Z" style="opacity:0.30000000000000004"></path><path d="M442.59,262.39c.24.21,1-.21,1.59-.93a4.44,4.44,0,0,0,.53-.73c.27-.45.36-.82.21-1s-.95.21-1.59.93S442.36,262.18,442.59,262.39Z" style="fill:#F36565"></path><path d="M444.67,260.8a5.27,5.27,0,0,1-1.16,1.28l.76.74A5.65,5.65,0,0,0,445,261Z" style="opacity:0.30000000000000004"></path><path d="M451.93,256.76c.1.29.92.29,1.84,0a5.43,5.43,0,0,0,.83-.36c.46-.25.73-.53.66-.73s-.92-.3-1.84,0S451.83,256.46,451.93,256.76Z" style="fill:#F36565"></path><path d="M454.53,256.44a3.81,3.81,0,0,1-1.65.52c.1.3.2.64.3,1a5.47,5.47,0,0,0,1.48-1.17Z" style="opacity:0.30000000000000004"></path><path d="M454.57,282.74c.85.77,2,.93,2.48.36s.25-1.66-.6-2.43-2-.93-2.47-.36S453.73,282,454.57,282.74Z" style="opacity:0.30000000000000004"></path><path d="M453.82,282.41c.85.77,2,.93,2.47.36s.25-1.65-.59-2.42-2-.93-2.48-.36S453,281.65,453.82,282.41Z" style="fill:#F36565"></path><path d="M453.82,282.41c.85.77,2,.93,2.47.36s.25-1.65-.59-2.42-2-.93-2.48-.36S453,281.65,453.82,282.41Z" style="fill:#fff;opacity:0.30000000000000004"></path><path d="M458.24,274.38a2.07,2.07,0,1,0,1.25-2.65A2.08,2.08,0,0,0,458.24,274.38Z" style="opacity:0.30000000000000004"></path><path d="M457.83,273.25a2.07,2.07,0,1,0,1.25-2.66A2.07,2.07,0,0,0,457.83,273.25Z" style="fill:#F36565"></path><path d="M457.83,273.25a2.07,2.07,0,1,0,1.25-2.66A2.07,2.07,0,0,0,457.83,273.25Z" style="fill:#fff;opacity:0.2"></path><g style="opacity:0.2"><path d="M457.06,286.88c0,.18.26.41.86.65a8.74,8.74,0,0,0,2.66.48,12.3,12.3,0,0,0,1.88-.07,13.85,13.85,0,0,0,11-8.23,13.33,13.33,0,0,0,.6-1.78,8.76,8.76,0,0,0,.3-2.69c-.06-.64-.2-1-.38-1-.39,0-.77,1.24-1.69,3-.22.45-.5.93-.8,1.43a15.1,15.1,0,0,1-1.06,1.53,16.34,16.34,0,0,1-3,2.95,16,16,0,0,1-3.67,2c-.61.24-1.2.42-1.76.58s-1.11.27-1.61.36C458.47,286.5,457.13,286.49,457.06,286.88Z"></path></g><g style="opacity:0.2"><path d="M472.43,269.25a1.26,1.26,0,1,0,1.64.81A1.28,1.28,0,0,0,472.43,269.25Z"></path></g><path d="M181.83,192.86l2.87,1.67s4.05-6.43,6.75-8.67a27.83,27.83,0,0,0,11.44,2.31,27.31,27.31,0,0,1,2.47,6.94l3.27-.62a20.14,20.14,0,0,1-.2-7A26.54,26.54,0,0,0,218.7,183c1.79,1.35,6,4.64,7.72,7.08l2.72-1.91s-4.41-6.8-5.12-10.08a28.19,28.19,0,0,0,5.5-10.47,26.91,26.91,0,0,1,6.9.36l.66-3.25s-4.25-.79-6.62-2.52a27.81,27.81,0,0,0-.86-9.21c1.69-1.28,6.21-4.58,9.11-5.58l-1.08-3.14s-7.21,2.19-10.73,2.13a27.49,27.49,0,0,0-4.51-6,26.79,26.79,0,0,1,3.79-5.78l-2.48-2.21s-2.86,3.32-5.57,4.48a28.14,28.14,0,0,0-8.42-3.83c-.19-1.43-1-7.89-.31-11.22l-3.26-.65s-2,8.52-4,11a27.67,27.67,0,0,0-7.16,1,26.79,26.79,0,0,1-3.47-6.56l-3.11,1s1.65,4.77,1.14,7.68a27.6,27.6,0,0,0-6.65,4.85s-7.2-2.85-10.07-5.31l-2.15,2.49s6.58,6.09,7.55,8.91a27.75,27.75,0,0,0-2.5,5.92,27.7,27.7,0,0,1-7.55-.28l-.65,3.21s4.92.93,7.12,2.89a28.05,28.05,0,0,0,.68,8.57c-.79.61-6.39,4.86-9.71,6l1.06,3.1s8.43-2.56,11.42-2a27.69,27.69,0,0,0,7.06,8.33C184.92,183.33,183.56,189.86,181.83,192.86Zm12.44-59.35-.11,0Z" style="fill:#F36565"></path><g style="opacity:0.1"><path d="M188.87,176.26c1-1.08-.26-3.64-1.22-7.37-.14-.45-.22-1-.35-1.45s-.19-1-.3-1.56a29.55,29.55,0,0,1-.37-3.39,21.43,21.43,0,0,1,4.05-14,31,31,0,0,1,2.11-2.67c.38-.39.73-.79,1.09-1.16s.71-.73,1.08-1c2.79-2.64,5.19-4.15,4.95-5.58a1.32,1.32,0,0,0-.69-.88,4.45,4.45,0,0,0-1.72-.56,13.24,13.24,0,0,0-6.06.82,19.72,19.72,0,0,0-1.9.79c-.65.3-1.29.68-2,1.07a23,23,0,0,0-3.9,3.1,22.6,22.6,0,0,0-3.46,4.38,23.47,23.47,0,0,0-2.48,5.57,23.84,23.84,0,0,0-.88,6,22.84,22.84,0,0,0,2.24,10.25c.35.69.7,1.35,1.08,2a17.18,17.18,0,0,0,1.19,1.68,13,13,0,0,0,4.69,3.93,4.47,4.47,0,0,0,1.75.45A1.4,1.4,0,0,0,188.87,176.26Z" style="fill:#fff"></path></g><path d="M204.76,120c-.12.58,1.24,1.37,3.06,1.76a9.25,9.25,0,0,0,1.71.21c1,0,1.71-.19,1.8-.58.12-.58-1.25-1.37-3.06-1.76S204.89,119.45,204.76,120Z" style="fill:#F36565"></path><path d="M209.38,122a10.82,10.82,0,0,1-3.24-.73c-.15.6-.32,1.28-.51,2a10.92,10.92,0,0,0,3.64-.51Z" style="opacity:0.30000000000000004"></path><path d="M223.14,130.73c-.41.45.37,1.82,1.74,3.07a9.29,9.29,0,0,0,1.37,1c.85.52,1.57.71,1.84.41s-.37-1.82-1.74-3.07S223.55,130.29,223.14,130.73Z" style="fill:#F36565"></path><path d="M226.13,134.77a7.35,7.35,0,0,1-2.43-2.27c-.41.47-.88.95-1.38,1.45a10.52,10.52,0,0,0,3.34,1.37Z" style="opacity:0.30000000000000004"></path><path d="M238,142.5c-.57.19-.56,1.77,0,3.53a10.7,10.7,0,0,0,.68,1.58c.49.88,1,1.39,1.41,1.27.57-.19.56-1.77,0-3.53S238.58,142.31,238,142.5Z" style="fill:#F36565"></path><path d="M238.63,147.48a10.66,10.66,0,0,1-1-3.16c-.59.17-1.26.37-1.95.55a11,11,0,0,0,2.28,2.88Z" style="opacity:0.30000000000000004"></path><path d="M238.33,163.4c-.59-.13-1.38,1.23-1.78,3a9.35,9.35,0,0,0-.21,1.71c0,1,.18,1.72.57,1.8.59.13,1.38-1.23,1.77-3S238.92,163.52,238.33,163.4Z" style="fill:#F36565"></path><path d="M236.34,168a7.45,7.45,0,0,1,.74-3.24c-.61-.12-1.26-.28-2-.47a10.53,10.53,0,0,0,.5,3.58Z" style="opacity:0.30000000000000004"></path><path d="M231,188.07c-.34-.49-1.85,0-3.39,1a8.92,8.92,0,0,0-1.33,1.09c-.7.71-1.05,1.37-.83,1.7.34.49,1.86,0,3.39-1S231.33,188.57,231,188.07Z" style="fill:#F36565"></path><path d="M226.38,190.05a10.76,10.76,0,0,1,2.76-1.84c-.33-.52-.7-1.11-1.07-1.72a10.91,10.91,0,0,0-2.14,3Z" style="opacity:0.30000000000000004"></path><path d="M210.37,195.13c-.1-.59-1.67-.82-3.49-.49a8.8,8.8,0,0,0-1.67.44c-.93.36-1.52.82-1.45,1.21.1.59,1.67.81,3.49.49S210.47,195.72,210.37,195.13Z" style="fill:#F36565"></path><path d="M205.35,195a7.37,7.37,0,0,1,3.28-.54c-.12-.61-.22-1.27-.31-2a10.76,10.76,0,0,0-3.12,1.81Z" style="opacity:0.30000000000000004"></path><path d="M185.6,196.15c.31-.51-.73-1.7-2.32-2.66a9.89,9.89,0,0,0-1.55-.75c-.94-.34-1.69-.38-1.89,0-.31.51.73,1.7,2.32,2.65S185.29,196.67,185.6,196.15Z" style="fill:#F36565"></path><path d="M181.87,192.79a10.83,10.83,0,0,1,2.83,1.74c.33-.52.71-1.11,1.11-1.69a10.83,10.83,0,0,0-3.61-.69Z" style="opacity:0.30000000000000004"></path><path d="M215.21,159.9c.73,2,2.44,3.29,3.81,2.79s1.89-2.55,1.15-4.59-2.45-3.29-3.82-2.79S214.47,157.86,215.21,159.9Z" style="opacity:0.30000000000000004"></path><path d="M215.38,157.47c.74,2,2.45,3.29,3.82,2.79s1.88-2.55,1.15-4.58-2.45-3.29-3.82-2.8S214.64,155.44,215.38,157.47Z" style="fill:#F36565"></path><path d="M215.38,157.47c.74,2,2.45,3.29,3.82,2.79s1.88-2.55,1.15-4.58-2.45-3.29-3.82-2.8S214.64,155.44,215.38,157.47Z" style="fill:#fff;opacity:0.2"></path><path d="M208.53,138.33c-2.14-.3-4.05.63-4.25,2.07s1.37,2.86,3.52,3.16,4-.62,4.25-2.06S210.68,138.64,208.53,138.33Z" style="opacity:0.30000000000000004"></path><path d="M208.92,136c-2.14-.3-4,.62-4.25,2.07s1.37,2.86,3.52,3.16,4.05-.62,4.25-2.07S211.07,136.3,208.92,136Z" style="fill:#F36565"></path><path d="M208.92,136c-2.14-.3-4,.62-4.25,2.07s1.37,2.86,3.52,3.16,4.05-.62,4.25-2.07S211.07,136.3,208.92,136Z" style="fill:#fff;opacity:0.2"></path><path d="M211.92,173.63a2.58,2.58,0,1,0,1.55-3.31A2.59,2.59,0,0,0,211.92,173.63Z" style="opacity:0.30000000000000004"></path><path d="M211.45,172.33A2.58,2.58,0,1,0,213,169,2.59,2.59,0,0,0,211.45,172.33Z" style="fill:#F36565"></path><path d="M211.45,172.33A2.58,2.58,0,1,0,213,169,2.59,2.59,0,0,0,211.45,172.33Z" style="fill:#fff;opacity:0.30000000000000004"></path><path d="M188,157.88a3.18,3.18,0,1,0-1.36-4.28A3.17,3.17,0,0,0,188,157.88Z" style="opacity:0.30000000000000004"></path><path d="M186.47,157.1a3.18,3.18,0,1,0-1.36-4.29A3.18,3.18,0,0,0,186.47,157.1Z" style="fill:#F36565"></path><path d="M186.47,157.1a3.18,3.18,0,1,0-1.36-4.29A3.18,3.18,0,0,0,186.47,157.1Z" style="fill:#fff;opacity:0.30000000000000004"></path><path d="M166.32,177.61c.56-.19.56-1.75,0-3.49a8.4,8.4,0,0,0-.67-1.56c-.48-.87-1-1.38-1.39-1.25-.56.18-.55,1.74,0,3.48S165.75,177.79,166.32,177.61Z" style="fill:#F36565"></path><path d="M165.7,172.68a10.68,10.68,0,0,1,1,3.13c.59-.17,1.25-.36,1.93-.54a10.71,10.71,0,0,0-2.25-2.85Z" style="opacity:0.30000000000000004"></path><path d="M166.31,156.6c.58.13,1.36-1.22,1.75-3a9.15,9.15,0,0,0,.21-1.69c0-1-.18-1.7-.56-1.78-.58-.13-1.37,1.22-1.75,3S165.73,156.47,166.31,156.6Z" style="fill:#F36565"></path><path d="M168.27,152a7.35,7.35,0,0,1-.73,3.2c.6.12,1.25.28,1.92.46a10.43,10.43,0,0,0-.49-3.53Z" style="opacity:0.30000000000000004"></path><path d="M169,138.05c.44.4,1.79-.39,3-1.76a9.18,9.18,0,0,0,1-1.37c.51-.85.68-1.57.39-1.83-.45-.39-1.79.4-3,1.77S168.51,137.66,169,138.05Z" style="fill:#F36565"></path><path d="M172.9,135a10.54,10.54,0,0,1-2.21,2.44c.45.41.95.89,1.45,1.39a11,11,0,0,0,1.33-3.38Z" style="opacity:0.30000000000000004"></path><path d="M186.63,127.39c.19.57,1.75.57,3.49,0a8.4,8.4,0,0,0,1.56-.67c.87-.48,1.38-1,1.26-1.38-.18-.56-1.75-.56-3.49,0S186.45,126.83,186.63,127.39Z" style="fill:#F36565"></path><path d="M191.56,126.79a7.26,7.26,0,0,1-3.14,1c.21.58.4,1.22.58,1.9a10.47,10.47,0,0,0,2.8-2.21Z" style="opacity:0.30000000000000004"></path><path d="M191.64,176.57c1.6,1.45,3.7,1.76,4.68.68s.47-3.14-1.14-4.59-3.7-1.76-4.68-.68S190,175.11,191.64,176.57Z" style="opacity:0.30000000000000004"></path><path d="M190.21,176c1.61,1.45,3.7,1.76,4.68.68s.48-3.14-1.13-4.6-3.7-1.76-4.68-.68S188.61,174.5,190.21,176Z" style="fill:#F36565"></path><path d="M190.21,176c1.61,1.45,3.7,1.76,4.68.68s.48-3.14-1.13-4.6-3.7-1.76-4.68-.68S188.61,174.5,190.21,176Z" style="fill:#fff;opacity:0.30000000000000004"></path><path d="M198.58,160.75a3.92,3.92,0,1,0,2.36-5A3.93,3.93,0,0,0,198.58,160.75Z" style="opacity:0.30000000000000004"></path><path d="M197.81,158.61a3.92,3.92,0,1,0,2.35-5A3.92,3.92,0,0,0,197.81,158.61Z" style="fill:#F36565"></path><path d="M197.81,158.61a3.92,3.92,0,1,0,2.35-5A3.92,3.92,0,0,0,197.81,158.61Z" style="fill:#fff;opacity:0.2"></path><g style="opacity:0.2"><path d="M196.33,184.41c-.06.33.5.78,1.64,1.22a16.42,16.42,0,0,0,5,.92,24.5,24.5,0,0,0,3.56-.13,27.84,27.84,0,0,0,4-.8,25.94,25.94,0,0,0,14.95-11.14,28,28,0,0,0,1.92-3.64,24,24,0,0,0,1.14-3.38,16.52,16.52,0,0,0,.55-5.08c-.09-1.21-.37-1.88-.7-1.92-.74-.08-1.46,2.35-3.2,5.76-.43.86-.94,1.76-1.52,2.71a33.74,33.74,0,0,1-2,2.89,28.53,28.53,0,0,1-12.58,9.38c-1.15.46-2.28.8-3.34,1.11s-2.09.51-3,.68C199,183.68,196.47,183.67,196.33,184.41Z"></path></g><g style="opacity:0.2"><path d="M225.43,151a2.4,2.4,0,1,0,3.12,1.54A2.47,2.47,0,0,0,225.43,151Z"></path></g><path d="M99.7,167.79l.93.54a16.66,16.66,0,0,1,2.18-2.81,9.18,9.18,0,0,0,3.71.75,9.38,9.38,0,0,1,.8,2.24l1.05-.2a6.52,6.52,0,0,1-.06-2.24,10.4,10.4,0,0,0,1.18-.33,9.29,9.29,0,0,0,2.14-1.13,14.12,14.12,0,0,1,2.5,2.29l.88-.62a15.47,15.47,0,0,1-1.66-3.26,9.13,9.13,0,0,0,1.78-3.39,9.42,9.42,0,0,1,2.23.12l.21-1.05a6.49,6.49,0,0,1-2.14-.82,8.84,8.84,0,0,0-.27-3,13.87,13.87,0,0,1,2.94-1.81l-.35-1a16.52,16.52,0,0,1-3.47.68,8.62,8.62,0,0,0-1.46-1.92,9,9,0,0,1,1.23-1.87l-.8-.72a6.31,6.31,0,0,1-1.81,1.45,8.8,8.8,0,0,0-2.72-1.23,15.24,15.24,0,0,1-.1-3.64l-1.05-.21a14.29,14.29,0,0,1-1.29,3.55,8.86,8.86,0,0,0-2.32.34,9.18,9.18,0,0,1-1.12-2.13l-1,.35a6.46,6.46,0,0,1,.36,2.48,9.07,9.07,0,0,0-2.15,1.57,15.64,15.64,0,0,1-3.25-1.72l-.7.8a13.26,13.26,0,0,1,2.44,2.89,9.21,9.21,0,0,0-.81,1.91,8.91,8.91,0,0,1-2.44-.09l-.21,1a6.13,6.13,0,0,1,2.31.93,8.66,8.66,0,0,0,.22,2.77,15.59,15.59,0,0,1-3.15,2l.35,1a13.45,13.45,0,0,1,3.69-.66,9.19,9.19,0,0,0,2.28,2.7A15,15,0,0,1,99.7,167.79Zm4-19.2h0Z" style="fill:#F36565"></path><g style="opacity:0.1"><path d="M102,162.42c.31-.35-.08-1.18-.39-2.39,0-.14-.07-.31-.12-.47s-.06-.33-.1-.5a9.31,9.31,0,0,1-.11-1.1,7.46,7.46,0,0,1,.25-2.37,7.57,7.57,0,0,1,1.06-2.15,8.74,8.74,0,0,1,.68-.87l.35-.37c.12-.11.23-.24.35-.34.9-.85,1.68-1.34,1.6-1.8a.43.43,0,0,0-.22-.29,1.6,1.6,0,0,0-.56-.18,4.3,4.3,0,0,0-2,.27,6,6,0,0,0-.61.25c-.21.1-.42.22-.64.35a8,8,0,0,0-1.26,1,7.72,7.72,0,0,0-1.12,1.42,7.17,7.17,0,0,0-1.08,3.75,7.42,7.42,0,0,0,.19,1.8,7.34,7.34,0,0,0,.53,1.52c.12.22.23.44.35.63s.25.38.38.54a4.18,4.18,0,0,0,1.52,1.27,1.46,1.46,0,0,0,.57.15A.45.45,0,0,0,102,162.42Z" style="fill:#fff"></path></g><path d="M107.12,144.23c0,.19.4.45,1,.57a2.3,2.3,0,0,0,.55.07c.33,0,.56-.06.58-.19s-.4-.44-1-.57S107.16,144,107.12,144.23Z" style="fill:#F36565"></path><path d="M108.62,144.87a3.46,3.46,0,0,1-1.05-.24c0,.2-.11.42-.17.64a3.44,3.44,0,0,0,1.18-.17Z" style="opacity:0.30000000000000004"></path><path d="M113.06,147.69c-.13.15.13.59.57,1a2.49,2.49,0,0,0,.44.34c.28.17.51.23.6.14s-.12-.59-.57-1S113.2,147.55,113.06,147.69Z" style="fill:#F36565"></path><path d="M114,149a2.38,2.38,0,0,1-.78-.74c-.14.16-.29.31-.45.47a3.53,3.53,0,0,0,1.08.45Z" style="opacity:0.30000000000000004"></path><path d="M117.88,151.5c-.19.06-.19.57,0,1.14a2.69,2.69,0,0,0,.22.51c.16.28.33.45.45.41s.19-.57,0-1.14S118.06,151.44,117.88,151.5Z" style="fill:#F36565"></path><path d="M118.08,153.11a3.36,3.36,0,0,1-.33-1l-.63.17a3.58,3.58,0,0,0,.74.94Z" style="opacity:0.30000000000000004"></path><path d="M118,158.26c-.19,0-.45.4-.58,1a4.07,4.07,0,0,0-.07.56c0,.32.06.55.19.58s.45-.4.57-1S118.17,158.3,118,158.26Z" style="fill:#F36565"></path><path d="M117.34,159.75a2.44,2.44,0,0,1,.23-1.05l-.63-.15a3.37,3.37,0,0,0,.17,1.16Z" style="opacity:0.30000000000000004"></path><path d="M115.6,166.24c-.11-.16-.6,0-1.09.32a3.24,3.24,0,0,0-.43.35c-.23.23-.34.45-.27.55s.6,0,1.1-.32S115.71,166.4,115.6,166.24Z" style="fill:#F36565"></path><path d="M114.11,166.88a3.44,3.44,0,0,1,.9-.6c-.11-.16-.23-.36-.35-.55a3.63,3.63,0,0,0-.69,1Z" style="opacity:0.30000000000000004"></path><path d="M108.94,168.52c0-.19-.54-.26-1.13-.16a3.2,3.2,0,0,0-.54.15c-.31.11-.5.26-.47.39s.54.26,1.13.16S109,168.71,108.94,168.52Z" style="fill:#F36565"></path><path d="M107.31,168.49a2.46,2.46,0,0,1,1.06-.18c0-.19-.07-.41-.1-.64a3.61,3.61,0,0,0-1,.59Z" style="opacity:0.30000000000000004"></path><path d="M100.92,168.85c.1-.17-.23-.55-.75-.86a3.23,3.23,0,0,0-.5-.24c-.3-.11-.54-.12-.61,0s.24.55.75.86S100.82,169,100.92,168.85Z" style="fill:#F36565"></path><path d="M99.72,167.77a3.33,3.33,0,0,1,.91.56l.36-.55a3.55,3.55,0,0,0-1.17-.22Z" style="opacity:0.30000000000000004"></path><path d="M110.5,157.13c.24.65.79,1.06,1.23.9s.61-.83.37-1.49-.79-1.06-1.23-.9S110.26,156.47,110.5,157.13Z" style="opacity:0.30000000000000004"></path><path d="M110.56,156.34c.23.66.79,1.06,1.23.9s.61-.82.37-1.48-.79-1.06-1.23-.9S110.32,155.68,110.56,156.34Z" style="fill:#F36565"></path><path d="M110.56,156.34c.23.66.79,1.06,1.23.9s.61-.82.37-1.48-.79-1.06-1.23-.9S110.32,155.68,110.56,156.34Z" style="fill:#fff;opacity:0.2"></path><path d="M108.34,150.15c-.69-.1-1.31.2-1.38.67s.45.92,1.14,1,1.31-.2,1.38-.67S109,150.25,108.34,150.15Z" style="opacity:0.30000000000000004"></path><path d="M108.47,149.4c-.7-.1-1.31.2-1.38.66s.44.93,1.14,1,1.31-.2,1.37-.67S109.16,149.49,108.47,149.4Z" style="fill:#F36565"></path><path d="M108.47,149.4c-.7-.1-1.31.2-1.38.66s.44.93,1.14,1,1.31-.2,1.37-.67S109.16,149.49,108.47,149.4Z" style="fill:#fff;opacity:0.2"></path><path d="M109.44,161.57a.83.83,0,0,0,1.07.5A.85.85,0,0,0,111,161a.84.84,0,0,0-1.57.57Z" style="opacity:0.30000000000000004"></path><path d="M109.28,161.15a.85.85,0,0,0,1.07.5.84.84,0,1,0-.57-1.57A.84.84,0,0,0,109.28,161.15Z" style="fill:#F36565"></path><path d="M109.28,161.15a.85.85,0,0,0,1.07.5.84.84,0,1,0-.57-1.57A.84.84,0,0,0,109.28,161.15Z" style="fill:#fff;opacity:0.30000000000000004"></path><path d="M101.69,156.47a1,1,0,1,0-.44-1.38A1,1,0,0,0,101.69,156.47Z" style="opacity:0.30000000000000004"></path><path d="M101.2,156.22a1,1,0,1,0,1-1.82,1,1,0,0,0-1,1.82Z" style="fill:#F36565"></path><path d="M101.2,156.22a1,1,0,1,0,1-1.82,1,1,0,0,0-1,1.82Z" style="fill:#fff;opacity:0.30000000000000004"></path><path d="M94.69,162.85c.18-.06.18-.56,0-1.12a2.44,2.44,0,0,0-.22-.51c-.15-.28-.32-.44-.44-.4s-.18.56,0,1.12S94.5,162.91,94.69,162.85Z" style="fill:#F36565"></path><path d="M94.49,161.26a3.36,3.36,0,0,1,.32,1c.19-.05.4-.12.62-.17a3.54,3.54,0,0,0-.73-.93Z" style="opacity:0.30000000000000004"></path><path d="M94.68,156.06c.19,0,.44-.4.57-1a3.81,3.81,0,0,0,.07-.54c0-.32-.06-.55-.18-.58s-.45.4-.57,1S94.5,156,94.68,156.06Z" style="fill:#F36565"></path><path d="M95.32,154.58a2.31,2.31,0,0,1-.24,1l.62.15a3.24,3.24,0,0,0-.16-1.15Z" style="opacity:0.30000000000000004"></path><path d="M95.54,150.06c.14.13.58-.13,1-.57a2.4,2.4,0,0,0,.33-.44c.16-.28.22-.51.12-.59s-.58.12-1,.57S95.4,149.93,95.54,150.06Z" style="fill:#F36565"></path><path d="M96.82,149.09a3.31,3.31,0,0,1-.72.78l.47.45a3.58,3.58,0,0,0,.43-1.09Z" style="opacity:0.30000000000000004"></path><path d="M101.26,146.61c.06.18.56.18,1.12,0a3.15,3.15,0,0,0,.51-.21c.28-.16.45-.33.41-.45s-.57-.18-1.13,0S101.2,146.43,101.26,146.61Z" style="fill:#F36565"></path><path d="M102.85,146.42a2.5,2.5,0,0,1-1,.32c.06.18.12.39.18.61a3.44,3.44,0,0,0,.91-.72Z" style="opacity:0.30000000000000004"></path><path d="M102.88,162.52c.52.47,1.19.57,1.51.22s.15-1-.37-1.49-1.19-.57-1.51-.22S102.36,162.05,102.88,162.52Z" style="opacity:0.30000000000000004"></path><path d="M102.42,162.32c.51.47,1.19.57,1.51.22s.15-1-.37-1.49-1.19-.57-1.51-.22S101.9,161.85,102.42,162.32Z" style="fill:#F36565"></path><path d="M102.42,162.32c.51.47,1.19.57,1.51.22s.15-1-.37-1.49-1.19-.57-1.51-.22S101.9,161.85,102.42,162.32Z" style="fill:#fff;opacity:0.30000000000000004"></path><path d="M105.12,157.4a1.27,1.27,0,1,0,.76-1.62A1.27,1.27,0,0,0,105.12,157.4Z" style="opacity:0.30000000000000004"></path><path d="M104.87,156.71a1.27,1.27,0,1,0,.76-1.63A1.27,1.27,0,0,0,104.87,156.71Z" style="fill:#F36565"></path><path d="M104.87,156.71a1.27,1.27,0,1,0,.76-1.63A1.27,1.27,0,0,0,104.87,156.71Z" style="fill:#fff;opacity:0.2"></path><g style="opacity:0.2"><path d="M104.39,165.05c0,.11.17.26.53.4a5.43,5.43,0,0,0,1.63.29,7.62,7.62,0,0,0,1.15,0,8.4,8.4,0,0,0,6.76-5,7,7,0,0,0,.37-1.09,5.35,5.35,0,0,0,.18-1.64c0-.39-.12-.61-.23-.62s-.47.76-1,1.86c-.14.28-.31.57-.49.88s-.4.62-.65.93a9.48,9.48,0,0,1-1.83,1.8,9.81,9.81,0,0,1-2.24,1.24c-.37.14-.74.25-1.08.35s-.68.17-1,.22C105.26,164.82,104.44,164.82,104.39,165.05Z"></path></g><g style="opacity:0.2"><path d="M113.81,154.26a.77.77,0,1,0,.45,1.48.8.8,0,0,0,.55-1A.79.79,0,0,0,113.81,154.26Z"></path></g><path d="M433.87,341.54l.85.49a14.67,14.67,0,0,1,2-2.56,8.24,8.24,0,0,0,3.38.68,8.09,8.09,0,0,1,.73,2.05l1-.18a6,6,0,0,1-.06-2,8.76,8.76,0,0,0,1.08-.31,8.21,8.21,0,0,0,1.95-1,12.09,12.09,0,0,1,2.28,2.09l.81-.57a14.08,14.08,0,0,1-1.52-3,8.29,8.29,0,0,0,1.63-3.09,7.78,7.78,0,0,1,2,.11l.19-1a6,6,0,0,1-2-.75,8.16,8.16,0,0,0-.25-2.72,12.94,12.94,0,0,1,2.69-1.65l-.32-.93a14.84,14.84,0,0,1-3.17.63,8.23,8.23,0,0,0-1.33-1.76,8.07,8.07,0,0,1,1.12-1.7l-.73-.66a6,6,0,0,1-1.65,1.33,8.13,8.13,0,0,0-2.49-1.13,14.26,14.26,0,0,1-.09-3.32l-1-.19a12.85,12.85,0,0,1-1.18,3.24,8.53,8.53,0,0,0-2.11.3,7.72,7.72,0,0,1-1-1.93l-.91.31a6,6,0,0,1,.33,2.26,8.07,8.07,0,0,0-2,1.44,14.31,14.31,0,0,1-3-1.57l-.63.73a12.08,12.08,0,0,1,2.23,2.64,7.93,7.93,0,0,0-.74,1.75,8.25,8.25,0,0,1-2.23-.09l-.19.95a5.64,5.64,0,0,1,2.1.85,8.42,8.42,0,0,0,.2,2.54,14.39,14.39,0,0,1-2.87,1.77l.32.92a12.17,12.17,0,0,1,3.37-.6,8.28,8.28,0,0,0,2.08,2.46A13.72,13.72,0,0,1,433.87,341.54ZM437.54,324h0Z" style="fill:#F36565"></path><g style="opacity:0.1"><path d="M436,336.63c.28-.32-.08-1.07-.36-2.17,0-.14-.07-.29-.11-.43s-.05-.31-.09-.46c0-.32-.09-.66-.1-1a6.81,6.81,0,0,1,.23-2.17,7,7,0,0,1,1-2c.2-.29.42-.54.63-.79l.32-.34c.11-.1.21-.22.32-.31.82-.78,1.53-1.22,1.46-1.65a.42.42,0,0,0-.21-.26,1.18,1.18,0,0,0-.5-.16,3.88,3.88,0,0,0-1.79.24c-.19.06-.37.15-.56.23a4.71,4.71,0,0,0-.58.32,6.41,6.41,0,0,0-1.16.92,6.85,6.85,0,0,0-1.75,2.94,7,7,0,0,0-.26,1.78,6.66,6.66,0,0,0,.17,1.64,7.56,7.56,0,0,0,.49,1.39c.11.2.21.4.32.57s.23.35.35.5a3.71,3.71,0,0,0,1.39,1.16,1.13,1.13,0,0,0,.51.13A.37.37,0,0,0,436,336.63Z" style="fill:#fff"></path></g><path d="M440.64,320c0,.18.37.41.91.52a2.34,2.34,0,0,0,.5.06c.3,0,.51-.05.53-.17s-.37-.4-.9-.52S440.68,319.85,440.64,320Z" style="fill:#F36565"></path><path d="M442,320.6a3.14,3.14,0,0,1-1-.21c0,.17-.09.38-.15.58a3.24,3.24,0,0,0,1.08-.15Z" style="opacity:0.30000000000000004"></path><path d="M446.07,323.18c-.12.13.11.54.52.91a2.7,2.7,0,0,0,.4.31c.25.15.47.21.55.12s-.11-.54-.52-.91S446.19,323.05,446.07,323.18Z" style="fill:#F36565"></path><path d="M447,324.37a2,2,0,0,1-.71-.67,5.42,5.42,0,0,1-.41.43,3.28,3.28,0,0,0,1,.41Z" style="opacity:0.30000000000000004"></path><path d="M450.47,326.66c-.17,0-.17.52,0,1a3,3,0,0,0,.2.47c.14.26.3.41.41.37s.17-.52,0-1S450.63,326.6,450.47,326.66Z" style="fill:#F36565"></path><path d="M450.65,328.13a3.16,3.16,0,0,1-.3-.94l-.57.17a3.21,3.21,0,0,0,.67.85Z" style="opacity:0.30000000000000004"></path><path d="M450.56,332.83c-.17,0-.41.37-.53.9,0,.18,0,.36-.06.51s0,.5.17.53.41-.37.52-.9S450.73,332.87,450.56,332.83Z" style="fill:#F36565"></path><path d="M450,334.19a2.1,2.1,0,0,1,.22-.95c-.18,0-.37-.08-.57-.14a3.06,3.06,0,0,0,.14,1.06Z" style="opacity:0.30000000000000004"></path><path d="M448.39,340.12c-.1-.14-.55,0-1,.3a2.15,2.15,0,0,0-.39.32c-.21.21-.31.4-.25.5s.55,0,1-.29S448.49,340.27,448.39,340.12Z" style="fill:#F36565"></path><path d="M447,340.71a3.26,3.26,0,0,1,.82-.55l-.32-.51a3.24,3.24,0,0,0-.63.89Z" style="opacity:0.30000000000000004"></path><path d="M442.3,342.21c0-.18-.49-.24-1-.15a2.89,2.89,0,0,0-.49.13c-.28.11-.45.24-.43.36s.49.24,1,.14S442.33,342.38,442.3,342.21Z" style="fill:#F36565"></path><path d="M440.82,342.18a2.2,2.2,0,0,1,1-.16,4.89,4.89,0,0,1-.09-.59,3.23,3.23,0,0,0-.93.54Z" style="opacity:0.30000000000000004"></path><path d="M435,342.51c.09-.15-.21-.51-.68-.79a3.15,3.15,0,0,0-.46-.22c-.28-.1-.5-.11-.56,0s.22.5.69.79S434.89,342.66,435,342.51Z" style="fill:#F36565"></path><path d="M433.88,341.52a3,3,0,0,1,.84.51l.32-.5a3.1,3.1,0,0,0-1.06-.2Z" style="opacity:0.30000000000000004"></path><path d="M443.73,331.8c.22.6.72,1,1.13.82s.55-.75.33-1.35-.72-1-1.12-.83S443.51,331.2,443.73,331.8Z" style="opacity:0.30000000000000004"></path><path d="M443.78,331.08c.22.6.72,1,1.13.83s.55-.76.34-1.36-.73-1-1.13-.82S443.56,330.48,443.78,331.08Z" style="fill:#F36565"></path><path d="M443.78,331.08c.22.6.72,1,1.13.83s.55-.76.34-1.36-.73-1-1.13-.82S443.56,330.48,443.78,331.08Z" style="fill:#fff;opacity:0.2"></path><path d="M441.76,325.43c-.64-.09-1.2.18-1.26.61s.4.84,1,.93,1.2-.18,1.26-.61S442.39,325.52,441.76,325.43Z" style="opacity:0.30000000000000004"></path><path d="M441.87,324.74c-.63-.09-1.19.18-1.26.61s.41.84,1,.93,1.2-.18,1.26-.61S442.51,324.83,441.87,324.74Z" style="fill:#F36565"></path><path d="M441.87,324.74c-.63-.09-1.19.18-1.26.61s.41.84,1,.93,1.2-.18,1.26-.61S442.51,324.83,441.87,324.74Z" style="fill:#fff;opacity:0.2"></path><path d="M442.76,335.85a.76.76,0,1,0,.45-1A.75.75,0,0,0,442.76,335.85Z" style="opacity:0.30000000000000004"></path><path d="M442.62,335.47a.76.76,0,1,0,.46-1A.76.76,0,0,0,442.62,335.47Z" style="fill:#F36565"></path><path d="M442.62,335.47a.76.76,0,1,0,.46-1A.76.76,0,0,0,442.62,335.47Z" style="fill:#fff;opacity:0.30000000000000004"></path><path d="M435.68,331.2a.94.94,0,0,0,1.27-.4.93.93,0,0,0-.4-1.26.94.94,0,0,0-1.27.4A.93.93,0,0,0,435.68,331.2Z" style="opacity:0.30000000000000004"></path><path d="M435.24,331a.93.93,0,0,0,1.26-.4.94.94,0,1,0-1.26.4Z" style="fill:#F36565"></path><path d="M435.24,331a.93.93,0,0,0,1.26-.4.94.94,0,1,0-1.26.4Z" style="fill:#fff;opacity:0.30000000000000004"></path><path d="M429.28,337c.17-.06.17-.52,0-1a3.34,3.34,0,0,0-.2-.46c-.14-.26-.3-.41-.41-.37s-.16.51,0,1S429.12,337.08,429.28,337Z" style="fill:#F36565"></path><path d="M429.1,335.58a3.06,3.06,0,0,1,.3.92l.56-.16a3.17,3.17,0,0,0-.66-.84Z" style="opacity:0.30000000000000004"></path><path d="M429.28,330.82c.17,0,.41-.36.52-.89a2.34,2.34,0,0,0,.06-.5c0-.29-.05-.5-.16-.52s-.41.36-.52.89S429.11,330.79,429.28,330.82Z" style="fill:#F36565"></path><path d="M429.86,329.48a2.13,2.13,0,0,1-.21.94l.56.14a3,3,0,0,0-.14-1.05Z" style="opacity:0.30000000000000004"></path><path d="M430.06,325.34c.14.12.53-.11.89-.52a2.09,2.09,0,0,0,.3-.4c.15-.25.2-.46.11-.54s-.52.12-.88.52S429.93,325.23,430.06,325.34Z" style="fill:#F36565"></path><path d="M431.23,324.45a3.11,3.11,0,0,1-.65.72l.42.41a3.19,3.19,0,0,0,.4-1Z" style="opacity:0.30000000000000004"></path><path d="M435.29,322.19c0,.17.51.17,1,0a2.45,2.45,0,0,0,.46-.19c.25-.14.41-.3.37-.41s-.52-.17-1,0S435.23,322,435.29,322.19Z" style="fill:#F36565"></path><path d="M436.74,322a2.13,2.13,0,0,1-.92.29c.06.17.11.36.16.56a3.08,3.08,0,0,0,.83-.65Z" style="opacity:0.30000000000000004"></path><path d="M436.77,336.72c.47.43,1.09.52,1.38.2s.14-.92-.34-1.35-1.09-.52-1.38-.2S436.29,336.29,436.77,336.72Z" style="opacity:0.30000000000000004"></path><path d="M436.34,336.54c.48.43,1.1.52,1.39.2s.14-.92-.34-1.35-1.09-.52-1.38-.2S435.87,336.11,436.34,336.54Z" style="fill:#F36565"></path><path d="M436.34,336.54c.48.43,1.1.52,1.39.2s.14-.92-.34-1.35-1.09-.52-1.38-.2S435.87,336.11,436.34,336.54Z" style="fill:#fff;opacity:0.30000000000000004"></path><path d="M438.82,332.05a1.16,1.16,0,1,0,.69-1.48A1.15,1.15,0,0,0,438.82,332.05Z" style="opacity:0.30000000000000004"></path><path d="M438.59,331.42a1.16,1.16,0,0,0,2.18-.79,1.16,1.16,0,1,0-2.18.79Z" style="fill:#F36565"></path><path d="M438.59,331.42a1.16,1.16,0,0,0,2.18-.79,1.16,1.16,0,1,0-2.18.79Z" style="fill:#fff;opacity:0.2"></path><g style="opacity:0.2"><path d="M438.15,339c0,.1.15.23.49.36a4.83,4.83,0,0,0,1.48.27,6.34,6.34,0,0,0,1.05,0,8.13,8.13,0,0,0,1.2-.23,8,8,0,0,0,2.51-1.24,7.8,7.8,0,0,0,1.9-2.06,8.59,8.59,0,0,0,.57-1.07,6.85,6.85,0,0,0,.33-1,4.7,4.7,0,0,0,.17-1.5c0-.36-.11-.55-.21-.57s-.43.7-.94,1.71c-.13.25-.28.52-.45.8s-.37.56-.6.85A8.65,8.65,0,0,1,444,337a8.83,8.83,0,0,1-2.05,1.12,9.56,9.56,0,0,1-1,.33c-.32.08-.62.15-.9.2C438.94,338.82,438.19,338.82,438.15,339Z"></path></g><g style="opacity:0.2"><path d="M446.75,329.18a.71.71,0,1,0,.42,1.35.71.71,0,1,0-.42-1.35Z"></path></g><path d="M277.15,101.77l.85.49a14.67,14.67,0,0,1,2-2.56,8.24,8.24,0,0,0,3.38.69,7.93,7.93,0,0,1,.73,2l1-.19a6,6,0,0,1-.06-2,8.7,8.7,0,0,0,1.08-.3,8.24,8.24,0,0,0,2-1,12.8,12.8,0,0,1,2.28,2.09l.81-.56a14.08,14.08,0,0,1-1.52-3,8.33,8.33,0,0,0,1.63-3.1,8.78,8.78,0,0,1,2,.11l.19-1a5.92,5.92,0,0,1-2-.74,8.11,8.11,0,0,0-.25-2.72A12.78,12.78,0,0,1,294,88.36l-.32-.93a14.84,14.84,0,0,1-3.17.63,7.76,7.76,0,0,0-1.33-1.76,7.83,7.83,0,0,1,1.12-1.71l-.73-.65a5.84,5.84,0,0,1-1.65,1.32,8.38,8.38,0,0,0-2.49-1.13,14.22,14.22,0,0,1-.09-3.32l-1-.19a12.85,12.85,0,0,1-1.18,3.24,8.1,8.1,0,0,0-2.11.31,8.12,8.12,0,0,1-1-1.94l-.91.31a6,6,0,0,1,.33,2.27,8,8,0,0,0-2,1.43,13.82,13.82,0,0,1-3-1.57l-.63.74A12.22,12.22,0,0,1,276.09,88a7.93,7.93,0,0,0-.74,1.75,8.07,8.07,0,0,1-2.23-.08l-.19,1a5.46,5.46,0,0,1,2.1.85,8.36,8.36,0,0,0,.2,2.53,14.33,14.33,0,0,1-2.87,1.78l.32.91a12.56,12.56,0,0,1,3.37-.6,8.28,8.28,0,0,0,2.08,2.46A13.58,13.58,0,0,1,277.15,101.77Zm3.67-17.53h0Z" style="fill:#F36565"></path><g style="opacity:0.1"><path d="M279.23,96.87c.28-.32-.08-1.08-.36-2.18,0-.13-.07-.28-.11-.43s-.05-.3-.09-.46c0-.32-.09-.65-.1-1a6.75,6.75,0,0,1,.23-2.17,6.88,6.88,0,0,1,1-2,8.73,8.73,0,0,1,.63-.79c.11-.12.21-.24.32-.35s.21-.21.32-.3c.82-.78,1.53-1.23,1.46-1.65a.4.4,0,0,0-.21-.26,1.32,1.32,0,0,0-.5-.17,4,4,0,0,0-1.79.24,4.49,4.49,0,0,0-.56.24,4.71,4.71,0,0,0-.58.32,6.34,6.34,0,0,0-1.16.91,7.08,7.08,0,0,0-1,1.29,7.25,7.25,0,0,0-.73,1.65,7,7,0,0,0-.26,1.78,6.66,6.66,0,0,0,.17,1.64,7.3,7.3,0,0,0,.49,1.39c.11.2.21.4.32.58a5.19,5.19,0,0,0,.35.49,3.86,3.86,0,0,0,1.39,1.17,1.47,1.47,0,0,0,.51.13A.44.44,0,0,0,279.23,96.87Z" style="fill:#fff"></path></g><path d="M283.92,80.26c0,.17.37.4.91.52a2.34,2.34,0,0,0,.5.06c.3,0,.51-.06.53-.17s-.36-.41-.9-.52S284,80.08,283.92,80.26Z" style="fill:#F36565"></path><path d="M285.29,80.84a3.31,3.31,0,0,1-1-.22c0,.18-.09.38-.15.58a3.24,3.24,0,0,0,1.08-.15Z" style="opacity:0.30000000000000004"></path><path d="M289.35,83.42c-.12.13.11.53.52.9a2.16,2.16,0,0,0,.4.31c.25.16.47.21.55.12s-.11-.53-.52-.9S289.47,83.28,289.35,83.42Z" style="fill:#F36565"></path><path d="M290.23,84.61a2.17,2.17,0,0,1-.71-.67c-.12.14-.26.28-.41.43a3.08,3.08,0,0,0,1,.4Z" style="opacity:0.30000000000000004"></path><path d="M293.75,86.89c-.17.06-.17.52,0,1a3.34,3.34,0,0,0,.2.46c.14.26.3.41.42.38s.16-.53,0-1S293.91,86.84,293.75,86.89Z" style="fill:#F36565"></path><path d="M293.93,88.36a3.17,3.17,0,0,1-.3-.93l-.57.16a3.06,3.06,0,0,0,.67.85Z" style="opacity:0.30000000000000004"></path><path d="M293.84,93.07c-.17,0-.41.36-.52.9a3.32,3.32,0,0,0-.07.5c0,.3.05.51.17.53s.41-.36.52-.9S294,93.1,293.84,93.07Z" style="fill:#F36565"></path><path d="M293.25,94.43a2.3,2.3,0,0,1,.22-1,4.71,4.71,0,0,1-.57-.14,3.06,3.06,0,0,0,.14,1.06Z" style="opacity:0.30000000000000004"></path><path d="M291.67,100.36c-.1-.15-.55,0-1,.29a2.15,2.15,0,0,0-.39.32c-.21.21-.31.41-.25.5s.55,0,1-.29S291.77,100.5,291.67,100.36Z" style="fill:#F36565"></path><path d="M290.31,100.94a3.07,3.07,0,0,1,.82-.54l-.32-.51a3.31,3.31,0,0,0-.63.88Z" style="opacity:0.30000000000000004"></path><path d="M285.58,102.44c0-.17-.49-.24-1-.14a2.19,2.19,0,0,0-.49.13c-.28.1-.45.24-.43.35s.49.24,1,.15S285.61,102.62,285.58,102.44Z" style="fill:#F36565"></path><path d="M284.1,102.41a2.2,2.2,0,0,1,1-.16,4.71,4.71,0,0,1-.09-.58,3.13,3.13,0,0,0-.93.53Z" style="opacity:0.30000000000000004"></path><path d="M278.26,102.74c.09-.15-.21-.5-.68-.78a2.37,2.37,0,0,0-.46-.22c-.28-.1-.5-.12-.56,0s.22.51.69.79S278.17,102.9,278.26,102.74Z" style="fill:#F36565"></path><path d="M277.16,101.75a3.35,3.35,0,0,1,.84.51l.32-.5a3.1,3.1,0,0,0-1.06-.2Z" style="opacity:0.30000000000000004"></path><path d="M287,92c.22.6.72,1,1.13.83s.55-.76.34-1.36-.73-1-1.13-.82S286.79,91.43,287,92Z" style="opacity:0.30000000000000004"></path><path d="M287.06,91.32c.22.6.72,1,1.13.82s.55-.75.34-1.36-.73-1-1.13-.82S286.84,90.71,287.06,91.32Z" style="fill:#F36565"></path><path d="M287.06,91.32c.22.6.72,1,1.13.82s.55-.75.34-1.36-.73-1-1.13-.82S286.84,90.71,287.06,91.32Z" style="fill:#fff;opacity:0.2"></path><path d="M285,85.66c-.64-.09-1.2.19-1.26.61s.4.85,1,.94,1.2-.19,1.26-.61S285.67,85.75,285,85.66Z" style="opacity:0.30000000000000004"></path><path d="M285.15,85c-.63-.09-1.19.19-1.25.61s.4.85,1,.94,1.2-.19,1.26-.61S285.79,85.06,285.15,85Z" style="fill:#F36565"></path><path d="M285.15,85c-.63-.09-1.19.19-1.25.61s.4.85,1,.94,1.2-.19,1.26-.61S285.79,85.06,285.15,85Z" style="fill:#fff;opacity:0.2"></path><path d="M286,96.09a.76.76,0,1,0,.45-1A.76.76,0,0,0,286,96.09Z" style="opacity:0.30000000000000004"></path><path d="M285.9,95.7a.76.76,0,1,0,.46-1A.76.76,0,0,0,285.9,95.7Z" style="fill:#F36565"></path><path d="M285.9,95.7a.76.76,0,1,0,.46-1A.76.76,0,0,0,285.9,95.7Z" style="fill:#fff;opacity:0.30000000000000004"></path><path d="M279,91.44a.94.94,0,1,0-.4-1.27A1,1,0,0,0,279,91.44Z" style="opacity:0.30000000000000004"></path><path d="M278.52,91.2a.93.93,0,1,0-.4-1.26A.93.93,0,0,0,278.52,91.2Z" style="fill:#F36565"></path><path d="M278.52,91.2a.93.93,0,1,0-.4-1.26A.93.93,0,0,0,278.52,91.2Z" style="fill:#fff;opacity:0.30000000000000004"></path><path d="M272.56,97.26c.17-.05.17-.51,0-1a3.34,3.34,0,0,0-.2-.46c-.14-.25-.3-.4-.41-.37s-.16.52,0,1S272.4,97.32,272.56,97.26Z" style="fill:#F36565"></path><path d="M272.38,95.81a3.06,3.06,0,0,1,.3.92l.56-.16a3.17,3.17,0,0,0-.66-.84Z" style="opacity:0.30000000000000004"></path><path d="M272.56,91.06c.17,0,.41-.36.52-.89a2.34,2.34,0,0,0,.06-.5c0-.29-.05-.5-.16-.53s-.41.36-.52.89S272.39,91,272.56,91.06Z" style="fill:#F36565"></path><path d="M273.14,89.71a2.18,2.18,0,0,1-.21,1l.56.13a2.94,2.94,0,0,0-.14-1Z" style="opacity:0.30000000000000004"></path><path d="M273.34,85.58c.14.11.53-.12.89-.52a2.5,2.5,0,0,0,.3-.41c.15-.25.2-.46.11-.54s-.52.12-.88.52S273.21,85.46,273.34,85.58Z" style="fill:#F36565"></path><path d="M274.51,84.69a3.34,3.34,0,0,1-.65.72c.13.12.28.26.42.41a3.28,3.28,0,0,0,.4-1Z" style="opacity:0.30000000000000004"></path><path d="M278.57,82.43c.05.17.51.17,1,0a3.34,3.34,0,0,0,.46-.2c.25-.14.41-.3.37-.41s-.52-.16-1,0S278.51,82.26,278.57,82.43Z" style="fill:#F36565"></path><path d="M280,82.25a2.13,2.13,0,0,1-.92.29c.06.17.11.36.16.56a3.08,3.08,0,0,0,.83-.65Z" style="opacity:0.30000000000000004"></path><path d="M280.05,97c.47.43,1.09.52,1.38.2s.14-.93-.34-1.36-1.09-.52-1.38-.2S279.57,96.53,280.05,97Z" style="opacity:0.30000000000000004"></path><path d="M279.62,96.78c.48.43,1.1.52,1.39.2s.14-.93-.34-1.36-1.09-.52-1.38-.2S279.15,96.35,279.62,96.78Z" style="fill:#F36565"></path><path d="M279.62,96.78c.48.43,1.1.52,1.39.2s.14-.93-.34-1.36-1.09-.52-1.38-.2S279.15,96.35,279.62,96.78Z" style="fill:#fff;opacity:0.30000000000000004"></path><path d="M282.1,92.28a1.16,1.16,0,1,0,.69-1.48A1.15,1.15,0,0,0,282.1,92.28Z" style="opacity:0.30000000000000004"></path><path d="M281.87,91.65a1.16,1.16,0,1,0,.69-1.48A1.15,1.15,0,0,0,281.87,91.65Z" style="fill:#F36565"></path><path d="M281.87,91.65a1.16,1.16,0,1,0,.69-1.48A1.15,1.15,0,0,0,281.87,91.65Z" style="fill:#fff;opacity:0.2"></path><g style="opacity:0.2"><path d="M281.43,99.27c0,.1.15.23.49.36a4.5,4.5,0,0,0,1.48.28,7.66,7.66,0,0,0,1.05,0,8.21,8.21,0,0,0,1.2-.24,7.6,7.6,0,0,0,4.41-3.29,8.69,8.69,0,0,0,.57-1.08,6.75,6.75,0,0,0,.33-1,4.75,4.75,0,0,0,.17-1.5c0-.36-.11-.56-.21-.57s-.43.69-.94,1.7c-.13.25-.28.52-.45.8a8.84,8.84,0,0,1-.6.85,8.65,8.65,0,0,1-1.66,1.65,8.88,8.88,0,0,1-2,1.13c-.34.13-.68.23-1,.32s-.62.15-.9.2C282.22,99.06,281.47,99.06,281.43,99.27Z"></path></g><g style="opacity:0.2"><path d="M290,89.41a.73.73,0,0,0-.5.9.74.74,0,0,0,1.42-.44A.74.74,0,0,0,290,89.41Z"></path></g><path d="M135.53,263.49l1.75,1a31,31,0,0,1,4.09-5.27,17,17,0,0,0,7,1.4,17,17,0,0,1,1.5,4.22l2-.38a12.37,12.37,0,0,1-.12-4.22,16.32,16.32,0,0,0,2.22-.62,16.9,16.9,0,0,0,4-2.11,25.94,25.94,0,0,1,4.69,4.3l1.65-1.16s-2.68-4.13-3.11-6.13a17,17,0,0,0,3.34-6.36,16.87,16.87,0,0,1,4.19.22l.41-2a12,12,0,0,1-4-1.54,16.68,16.68,0,0,0-.52-5.59,27.07,27.07,0,0,1,5.53-3.39l-.65-1.91a31.16,31.16,0,0,1-6.52,1.3,16.66,16.66,0,0,0-2.74-3.62,16.37,16.37,0,0,1,2.3-3.51L161,226.83a12,12,0,0,1-3.38,2.72,17.14,17.14,0,0,0-5.11-2.33,28.27,28.27,0,0,1-.19-6.82l-2-.39s-1.23,5.17-2.42,6.66a16.82,16.82,0,0,0-4.35.63,16.56,16.56,0,0,1-2.1-4l-1.89.64a12.3,12.3,0,0,1,.69,4.67,16.6,16.6,0,0,0-4,2.95s-4.38-1.74-6.12-3.23l-1.3,1.51s4,3.7,4.58,5.41a17.52,17.52,0,0,0-1.52,3.6,16.76,16.76,0,0,1-4.58-.17l-.4,1.95s3,.56,4.33,1.75a17.06,17.06,0,0,0,.41,5.21,29.62,29.62,0,0,1-5.9,3.65l.65,1.89s5.12-1.56,6.93-1.24a17.1,17.1,0,0,0,4.29,5.06A28.45,28.45,0,0,1,135.53,263.49Zm7.56-36.05-.07,0Z" style="fill:#F36565"></path><g style="opacity:0.1"><path d="M139.81,253.41c.58-.66-.16-2.22-.74-4.48-.09-.27-.13-.58-.21-.88s-.12-.63-.19-1a18.58,18.58,0,0,1-.22-2.06,14.33,14.33,0,0,1,.48-4.46,14,14,0,0,1,2-4,18.09,18.09,0,0,1,1.28-1.63c.23-.23.44-.48.67-.7s.43-.44.65-.63c1.69-1.61,3.15-2.52,3-3.39a.82.82,0,0,0-.43-.54,2.64,2.64,0,0,0-1-.34,8.13,8.13,0,0,0-3.68.5,10.86,10.86,0,0,0-1.15.48,12.94,12.94,0,0,0-1.2.65,13.79,13.79,0,0,0-2.36,1.88,14.13,14.13,0,0,0-2.11,2.66,14.66,14.66,0,0,0-1.5,3.39,14.42,14.42,0,0,0-.54,3.67,14,14,0,0,0,.36,3.37,14.66,14.66,0,0,0,1,2.85c.22.42.43.82.66,1.19s.46.71.72,1a8,8,0,0,0,2.85,2.38,2.61,2.61,0,0,0,1.06.28A.87.87,0,0,0,139.81,253.41Z" style="fill:#fff"></path></g><path d="M149.46,219.25c-.07.36.76.84,1.86,1.08a5,5,0,0,0,1,.12c.61,0,1-.11,1.09-.35s-.75-.83-1.86-1.07S149.54,218.9,149.46,219.25Z" style="fill:#F36565"></path><path d="M152.27,220.45a6.57,6.57,0,0,1-2-.44c-.09.36-.19.78-.31,1.19a6.58,6.58,0,0,0,2.21-.31Z" style="opacity:0.30000000000000004"></path><path d="M160.63,225.75c-.25.27.22,1.11,1.05,1.87a6.12,6.12,0,0,0,.84.63c.51.32.95.43,1.12.25s-.23-1.1-1.06-1.86S160.87,225.48,160.63,225.75Z" style="fill:#F36565"></path><path d="M162.44,228.2a4.57,4.57,0,0,1-1.48-1.37c-.24.28-.53.58-.83.88a6.58,6.58,0,0,0,2,.83Z" style="opacity:0.30000000000000004"></path><path d="M169.66,232.9c-.35.11-.34,1.07,0,2.14a5.43,5.43,0,0,0,.41,1c.3.54.62.85.85.77s.35-1.07,0-2.14S170,232.79,169.66,232.9Z" style="fill:#F36565"></path><path d="M170,235.93a6.53,6.53,0,0,1-.61-1.93l-1.19.34a6.71,6.71,0,0,0,1.39,1.75Z" style="opacity:0.30000000000000004"></path><path d="M169.85,245.59c-.35-.07-.84.75-1.08,1.85a6,6,0,0,0-.13,1c0,.61.11,1.05.35,1.1s.84-.75,1.08-1.85S170.21,245.67,169.85,245.59Z" style="fill:#F36565"></path><path d="M168.65,248.39a4.37,4.37,0,0,1,.45-2c-.37-.07-.77-.17-1.19-.29a6.61,6.61,0,0,0,.3,2.18Z" style="opacity:0.30000000000000004"></path><path d="M165.4,260.58c-.21-.3-1.13,0-2.06.61a5.13,5.13,0,0,0-.81.66c-.43.43-.64.83-.5,1s1.12,0,2.05-.6S165.6,260.89,165.4,260.58Z" style="fill:#F36565"></path><path d="M162.59,261.79a6.51,6.51,0,0,1,1.68-1.12c-.2-.32-.43-.68-.65-1.05a6.81,6.81,0,0,0-1.3,1.82Z" style="opacity:0.30000000000000004"></path><path d="M152.87,264.87c-.06-.36-1-.5-2.12-.3a5.88,5.88,0,0,0-1,.27c-.57.22-.93.5-.89.73s1,.5,2.13.3S152.93,265.23,152.87,264.87Z" style="fill:#F36565"></path><path d="M149.82,264.81a4.56,4.56,0,0,1,2-.33q-.1-.56-.18-1.2a6.46,6.46,0,0,0-1.9,1.1Z" style="opacity:0.30000000000000004"></path><path d="M137.82,265.49c.19-.31-.44-1-1.41-1.61a5.4,5.4,0,0,0-.94-.46c-.57-.21-1-.23-1.15,0s.45,1,1.41,1.61S137.64,265.8,137.82,265.49Z" style="fill:#F36565"></path><path d="M135.55,263.45a6.68,6.68,0,0,1,1.73,1.06c.2-.32.43-.68.67-1a6.47,6.47,0,0,0-2.19-.42Z" style="opacity:0.30000000000000004"></path><path d="M155.81,243.47c.45,1.24,1.48,2,2.32,1.69s1.14-1.55.69-2.78-1.48-2-2.32-1.7S155.36,242.23,155.81,243.47Z" style="opacity:0.30000000000000004"></path><path d="M155.91,242c.45,1.23,1.49,2,2.32,1.69s1.15-1.55.7-2.79-1.49-2-2.32-1.69S155.47,240.76,155.91,242Z" style="fill:#F36565"></path><path d="M155.91,242c.45,1.23,1.49,2,2.32,1.69s1.15-1.55.7-2.79-1.49-2-2.32-1.69S155.47,240.76,155.91,242Z" style="fill:#fff;opacity:0.2"></path><path d="M151.75,230.37c-1.3-.18-2.46.38-2.58,1.25s.83,1.74,2.14,1.93,2.46-.38,2.58-1.26S153.06,230.55,151.75,230.37Z" style="opacity:0.30000000000000004"></path><path d="M152,229c-1.3-.18-2.46.38-2.58,1.26s.83,1.73,2.13,1.92,2.46-.38,2.59-1.26S153.29,229.14,152,229Z" style="fill:#F36565"></path><path d="M152,229c-1.3-.18-2.46.38-2.58,1.26s.83,1.73,2.13,1.92,2.46-.38,2.59-1.26S153.29,229.14,152,229Z" style="fill:#fff;opacity:0.2"></path><path d="M153.81,251.81a1.57,1.57,0,1,0,.94-2A1.57,1.57,0,0,0,153.81,251.81Z" style="opacity:0.30000000000000004"></path><path d="M153.52,251a1.57,1.57,0,0,0,2,.94,1.57,1.57,0,1,0-2-.94Z" style="fill:#F36565"></path><path d="M153.52,251a1.57,1.57,0,0,0,2,.94,1.57,1.57,0,1,0-2-.94Z" style="fill:#fff;opacity:0.30000000000000004"></path><path d="M139.27,242.24a1.93,1.93,0,1,0-.83-2.6A1.93,1.93,0,0,0,139.27,242.24Z" style="opacity:0.30000000000000004"></path><path d="M138.35,241.77a1.93,1.93,0,1,0-.82-2.61A1.93,1.93,0,0,0,138.35,241.77Z" style="fill:#F36565"></path><path d="M138.35,241.77a1.93,1.93,0,1,0-.82-2.61A1.93,1.93,0,0,0,138.35,241.77Z" style="fill:#fff;opacity:0.30000000000000004"></path><path d="M126.11,254.22c.34-.11.34-1.06,0-2.11a5.64,5.64,0,0,0-.41-1c-.29-.53-.61-.84-.84-.76s-.34,1.06,0,2.12S125.77,254.34,126.11,254.22Z" style="fill:#F36565"></path><path d="M125.73,251.23a6.43,6.43,0,0,1,.61,1.91l1.17-.34a6.73,6.73,0,0,0-1.37-1.73Z" style="opacity:0.30000000000000004"></path><path d="M126.1,241.46c.36.08.83-.74,1.07-1.83a5.59,5.59,0,0,0,.13-1c0-.6-.11-1-.34-1.08s-.83.74-1.07,1.83S125.75,241.39,126.1,241.46Z" style="fill:#F36565"></path><path d="M127.29,238.7a4.36,4.36,0,0,1-.44,1.94c.37.07.76.17,1.17.28a6.43,6.43,0,0,0-.3-2.15Z" style="opacity:0.30000000000000004"></path><path d="M127.71,230.2c.27.24,1.09-.24,1.83-1.07a5.62,5.62,0,0,0,.61-.83c.31-.52.42-1,.24-1.11s-1.09.24-1.83,1.07S127.44,230,127.71,230.2Z" style="fill:#F36565"></path><path d="M130.11,228.37a6.52,6.52,0,0,1-1.34,1.48c.27.25.57.54.87.84a6.47,6.47,0,0,0,.81-2.05Z" style="opacity:0.30000000000000004"></path><path d="M138.45,223.72c.11.35,1.06.35,2.12,0a5.66,5.66,0,0,0,1-.4c.52-.29.83-.62.76-.84s-1.06-.35-2.12,0S138.34,223.38,138.45,223.72Z" style="fill:#F36565"></path><path d="M141.44,223.36a4.37,4.37,0,0,1-1.9.59c.12.36.24.74.35,1.15a6.33,6.33,0,0,0,1.7-1.33Z" style="opacity:0.30000000000000004"></path><path d="M141.49,253.59c1,.89,2.25,1.07,2.84.42s.29-1.91-.69-2.79-2.24-1.07-2.84-.41S140.51,252.71,141.49,253.59Z" style="opacity:0.30000000000000004"></path><path d="M140.63,253.22c1,.89,2.24,1.07,2.84.42s.29-1.91-.69-2.79-2.25-1.07-2.84-.42S139.65,252.34,140.63,253.22Z" style="fill:#F36565"></path><path d="M140.63,253.22c1,.89,2.24,1.07,2.84.42s.29-1.91-.69-2.79-2.25-1.07-2.84-.42S139.65,252.34,140.63,253.22Z" style="fill:#fff;opacity:0.30000000000000004"></path><path d="M145.71,244a2.38,2.38,0,1,0,1.43-3.05A2.38,2.38,0,0,0,145.71,244Z" style="opacity:0.30000000000000004"></path><path d="M145.24,242.69a2.38,2.38,0,1,0,1.43-3.06A2.38,2.38,0,0,0,145.24,242.69Z" style="fill:#F36565"></path><path d="M145.24,242.69a2.38,2.38,0,1,0,1.43-3.06A2.38,2.38,0,0,0,145.24,242.69Z" style="fill:#fff;opacity:0.2"></path><g style="opacity:0.2"><path d="M144.34,258.36c0,.2.31.47,1,.74a9.87,9.87,0,0,0,3,.56,14.71,14.71,0,0,0,2.16-.08,15.89,15.89,0,0,0,12.7-9.47,14.55,14.55,0,0,0,.69-2.05,9.94,9.94,0,0,0,.34-3.08c-.06-.74-.22-1.15-.43-1.17-.45-.05-.89,1.43-1.94,3.5-.26.52-.58,1.07-.92,1.65s-.76,1.16-1.22,1.75a18.38,18.38,0,0,1-3.43,3.39,18.14,18.14,0,0,1-4.22,2.31c-.7.28-1.38.48-2,.67s-1.27.31-1.84.41C146,257.91,144.43,257.91,144.34,258.36Z"></path></g><g style="opacity:0.2"><path d="M162,238.08a1.46,1.46,0,1,0,1.89.94A1.5,1.5,0,0,0,162,238.08Z"></path></g></g></svg>